<mxfile host="app.diagrams.net" agent="Mozilla/5.0 (Windows NT 10.0; Win64; x64) AppleWebKit/537.36 (KHTML, like Gecko) Chrome/129.0.0.0 Safari/537.36" version="24.7.17" pages="2">
  <diagram id="C5RBs43oDa-KdzZeNtuy" name="create_map">
    <mxGraphModel dx="605" dy="701" grid="1" gridSize="10" guides="1" tooltips="1" connect="1" arrows="1" fold="1" page="1" pageScale="1" pageWidth="827" pageHeight="1169" math="0" shadow="0">
      <root>
        <mxCell id="WIyWlLk6GJQsqaUBKTNV-0" />
        <mxCell id="WIyWlLk6GJQsqaUBKTNV-1" parent="WIyWlLk6GJQsqaUBKTNV-0" />
        <mxCell id="HHpRpX6-WKTF--eh4rhF-0" value="Main Create Map" style="rounded=0;whiteSpace=wrap;html=1;" parent="WIyWlLk6GJQsqaUBKTNV-1" vertex="1">
          <mxGeometry x="40" y="40" width="120" height="60" as="geometry" />
        </mxCell>
        <mxCell id="HHpRpX6-WKTF--eh4rhF-10" value="" style="edgeStyle=orthogonalEdgeStyle;rounded=0;orthogonalLoop=1;jettySize=auto;html=1;" parent="WIyWlLk6GJQsqaUBKTNV-1" source="HHpRpX6-WKTF--eh4rhF-1" target="HHpRpX6-WKTF--eh4rhF-2" edge="1">
          <mxGeometry relative="1" as="geometry" />
        </mxCell>
        <mxCell id="HHpRpX6-WKTF--eh4rhF-1" value="Main" style="strokeWidth=2;html=1;shape=mxgraph.flowchart.terminator;whiteSpace=wrap;" parent="WIyWlLk6GJQsqaUBKTNV-1" vertex="1">
          <mxGeometry x="250" y="110" width="110" height="60" as="geometry" />
        </mxCell>
        <mxCell id="HHpRpX6-WKTF--eh4rhF-11" value="" style="edgeStyle=orthogonalEdgeStyle;rounded=0;orthogonalLoop=1;jettySize=auto;html=1;" parent="WIyWlLk6GJQsqaUBKTNV-1" source="HHpRpX6-WKTF--eh4rhF-2" target="HHpRpX6-WKTF--eh4rhF-3" edge="1">
          <mxGeometry relative="1" as="geometry" />
        </mxCell>
        <mxCell id="HHpRpX6-WKTF--eh4rhF-2" value="tile size&lt;div&gt;(adjustable in setting)&lt;/div&gt;" style="rounded=1;whiteSpace=wrap;html=1;absoluteArcSize=1;arcSize=14;strokeWidth=2;" parent="WIyWlLk6GJQsqaUBKTNV-1" vertex="1">
          <mxGeometry x="225" y="200" width="160" height="60" as="geometry" />
        </mxCell>
        <mxCell id="HHpRpX6-WKTF--eh4rhF-12" value="" style="edgeStyle=orthogonalEdgeStyle;rounded=0;orthogonalLoop=1;jettySize=auto;html=1;" parent="WIyWlLk6GJQsqaUBKTNV-1" source="HHpRpX6-WKTF--eh4rhF-3" target="HHpRpX6-WKTF--eh4rhF-4" edge="1">
          <mxGeometry relative="1" as="geometry" />
        </mxCell>
        <mxCell id="HHpRpX6-WKTF--eh4rhF-3" value="&lt;div&gt;width, height&lt;/div&gt;&lt;div&gt;(adjustable in setting)&lt;/div&gt;" style="rounded=1;whiteSpace=wrap;html=1;absoluteArcSize=1;arcSize=14;strokeWidth=2;" parent="WIyWlLk6GJQsqaUBKTNV-1" vertex="1">
          <mxGeometry x="225" y="290" width="160" height="60" as="geometry" />
        </mxCell>
        <mxCell id="HHpRpX6-WKTF--eh4rhF-13" value="" style="edgeStyle=orthogonalEdgeStyle;rounded=0;orthogonalLoop=1;jettySize=auto;html=1;" parent="WIyWlLk6GJQsqaUBKTNV-1" source="HHpRpX6-WKTF--eh4rhF-4" target="HHpRpX6-WKTF--eh4rhF-5" edge="1">
          <mxGeometry relative="1" as="geometry" />
        </mxCell>
        <mxCell id="HHpRpX6-WKTF--eh4rhF-4" value="city_map = create_connected_path(height, width" style="shape=process;whiteSpace=wrap;html=1;backgroundOutline=1;" parent="WIyWlLk6GJQsqaUBKTNV-1" vertex="1">
          <mxGeometry x="170" y="390" width="270" height="100" as="geometry" />
        </mxCell>
        <mxCell id="HHpRpX6-WKTF--eh4rhF-14" value="" style="edgeStyle=orthogonalEdgeStyle;rounded=0;orthogonalLoop=1;jettySize=auto;html=1;" parent="WIyWlLk6GJQsqaUBKTNV-1" source="HHpRpX6-WKTF--eh4rhF-5" target="HHpRpX6-WKTF--eh4rhF-6" edge="1">
          <mxGeometry relative="1" as="geometry" />
        </mxCell>
        <mxCell id="HHpRpX6-WKTF--eh4rhF-5" value="add_random_building(city_map, building_density = 0.05)" style="shape=process;whiteSpace=wrap;html=1;backgroundOutline=1;" parent="WIyWlLk6GJQsqaUBKTNV-1" vertex="1">
          <mxGeometry x="170" y="520" width="270" height="100" as="geometry" />
        </mxCell>
        <mxCell id="HHpRpX6-WKTF--eh4rhF-15" value="" style="edgeStyle=orthogonalEdgeStyle;rounded=0;orthogonalLoop=1;jettySize=auto;html=1;" parent="WIyWlLk6GJQsqaUBKTNV-1" source="HHpRpX6-WKTF--eh4rhF-6" target="HHpRpX6-WKTF--eh4rhF-7" edge="1">
          <mxGeometry relative="1" as="geometry" />
        </mxCell>
        <mxCell id="HHpRpX6-WKTF--eh4rhF-6" value="remove_isolated_paths(city_map)" style="shape=process;whiteSpace=wrap;html=1;backgroundOutline=1;" parent="WIyWlLk6GJQsqaUBKTNV-1" vertex="1">
          <mxGeometry x="170" y="650" width="270" height="100" as="geometry" />
        </mxCell>
        <mxCell id="HHpRpX6-WKTF--eh4rhF-16" value="" style="edgeStyle=orthogonalEdgeStyle;rounded=0;orthogonalLoop=1;jettySize=auto;html=1;" parent="WIyWlLk6GJQsqaUBKTNV-1" source="HHpRpX6-WKTF--eh4rhF-7" target="HHpRpX6-WKTF--eh4rhF-9" edge="1">
          <mxGeometry relative="1" as="geometry" />
        </mxCell>
        <mxCell id="HHpRpX6-WKTF--eh4rhF-7" value="save_map" style="shape=process;whiteSpace=wrap;html=1;backgroundOutline=1;" parent="WIyWlLk6GJQsqaUBKTNV-1" vertex="1">
          <mxGeometry x="170" y="780" width="270" height="100" as="geometry" />
        </mxCell>
        <mxCell id="HHpRpX6-WKTF--eh4rhF-9" value="End" style="strokeWidth=2;html=1;shape=mxgraph.flowchart.terminator;whiteSpace=wrap;" parent="WIyWlLk6GJQsqaUBKTNV-1" vertex="1">
          <mxGeometry x="250" y="910" width="110" height="60" as="geometry" />
        </mxCell>
        <mxCell id="HHpRpX6-WKTF--eh4rhF-18" value="create_connected_path" style="shape=process;whiteSpace=wrap;html=1;backgroundOutline=1;" parent="WIyWlLk6GJQsqaUBKTNV-1" vertex="1">
          <mxGeometry x="870" y="40" width="180" height="80" as="geometry" />
        </mxCell>
        <mxCell id="HHpRpX6-WKTF--eh4rhF-19" value="" style="edgeStyle=orthogonalEdgeStyle;rounded=0;orthogonalLoop=1;jettySize=auto;html=1;" parent="WIyWlLk6GJQsqaUBKTNV-1" edge="1">
          <mxGeometry relative="1" as="geometry">
            <mxPoint x="1280.0000000000002" y="175" as="sourcePoint" />
            <mxPoint x="1280" y="205" as="targetPoint" />
          </mxGeometry>
        </mxCell>
        <mxCell id="HHpRpX6-WKTF--eh4rhF-34" value="create_connected_path&lt;br&gt;(width, height)" style="shape=process;whiteSpace=wrap;html=1;backgroundOutline=1;" parent="WIyWlLk6GJQsqaUBKTNV-1" vertex="1">
          <mxGeometry x="1190" y="95" width="180" height="80" as="geometry" />
        </mxCell>
        <mxCell id="HHpRpX6-WKTF--eh4rhF-76" value="" style="edgeStyle=orthogonalEdgeStyle;rounded=0;orthogonalLoop=1;jettySize=auto;html=1;" parent="WIyWlLk6GJQsqaUBKTNV-1" source="HHpRpX6-WKTF--eh4rhF-35" target="HHpRpX6-WKTF--eh4rhF-70" edge="1">
          <mxGeometry relative="1" as="geometry" />
        </mxCell>
        <mxCell id="HHpRpX6-WKTF--eh4rhF-35" value="grid = list of [&lt;i&gt; list of row number 1 with size equal to width &lt;/i&gt;] with size equal to height" style="rounded=1;whiteSpace=wrap;html=1;absoluteArcSize=1;arcSize=14;strokeWidth=2;" parent="WIyWlLk6GJQsqaUBKTNV-1" vertex="1">
          <mxGeometry x="1170" y="205" width="220" height="80" as="geometry" />
        </mxCell>
        <mxCell id="HHpRpX6-WKTF--eh4rhF-74" value="" style="edgeStyle=orthogonalEdgeStyle;rounded=0;orthogonalLoop=1;jettySize=auto;html=1;" parent="WIyWlLk6GJQsqaUBKTNV-1" source="HHpRpX6-WKTF--eh4rhF-70" target="HHpRpX6-WKTF--eh4rhF-73" edge="1">
          <mxGeometry relative="1" as="geometry" />
        </mxCell>
        <mxCell id="HHpRpX6-WKTF--eh4rhF-70" value="start_x = random number between 1 and height - 2" style="rounded=1;whiteSpace=wrap;html=1;absoluteArcSize=1;arcSize=14;strokeWidth=2;" parent="WIyWlLk6GJQsqaUBKTNV-1" vertex="1">
          <mxGeometry x="1195" y="315" width="170" height="85" as="geometry" />
        </mxCell>
        <mxCell id="HHpRpX6-WKTF--eh4rhF-77" value="" style="edgeStyle=orthogonalEdgeStyle;rounded=0;orthogonalLoop=1;jettySize=auto;html=1;" parent="WIyWlLk6GJQsqaUBKTNV-1" source="HHpRpX6-WKTF--eh4rhF-73" target="HHpRpX6-WKTF--eh4rhF-75" edge="1">
          <mxGeometry relative="1" as="geometry" />
        </mxCell>
        <mxCell id="HHpRpX6-WKTF--eh4rhF-73" value="start_y = random number between 1 and width - 2" style="rounded=1;whiteSpace=wrap;html=1;absoluteArcSize=1;arcSize=14;strokeWidth=2;" parent="WIyWlLk6GJQsqaUBKTNV-1" vertex="1">
          <mxGeometry x="1195" y="437.5" width="170" height="85" as="geometry" />
        </mxCell>
        <mxCell id="HHpRpX6-WKTF--eh4rhF-79" value="" style="edgeStyle=orthogonalEdgeStyle;rounded=0;orthogonalLoop=1;jettySize=auto;html=1;" parent="WIyWlLk6GJQsqaUBKTNV-1" source="HHpRpX6-WKTF--eh4rhF-75" target="HHpRpX6-WKTF--eh4rhF-78" edge="1">
          <mxGeometry relative="1" as="geometry" />
        </mxCell>
        <mxCell id="HHpRpX6-WKTF--eh4rhF-75" value="set number position [start_x, start_y] in grid to 0" style="rounded=1;whiteSpace=wrap;html=1;absoluteArcSize=1;arcSize=14;strokeWidth=2;" parent="WIyWlLk6GJQsqaUBKTNV-1" vertex="1">
          <mxGeometry x="1195" y="555" width="170" height="85" as="geometry" />
        </mxCell>
        <mxCell id="HHpRpX6-WKTF--eh4rhF-81" value="" style="edgeStyle=orthogonalEdgeStyle;rounded=0;orthogonalLoop=1;jettySize=auto;html=1;" parent="WIyWlLk6GJQsqaUBKTNV-1" source="HHpRpX6-WKTF--eh4rhF-78" target="HHpRpX6-WKTF--eh4rhF-80" edge="1">
          <mxGeometry relative="1" as="geometry" />
        </mxCell>
        <mxCell id="HHpRpX6-WKTF--eh4rhF-78" value="direction =&amp;nbsp;[(0, 1), (1, 0), (0, -1), (-1, 0), (1, 1), (1, -1), (-1, 1), (-1, -1)]" style="rounded=1;whiteSpace=wrap;html=1;absoluteArcSize=1;arcSize=14;strokeWidth=2;" parent="WIyWlLk6GJQsqaUBKTNV-1" vertex="1">
          <mxGeometry x="1195" y="670" width="170" height="85" as="geometry" />
        </mxCell>
        <mxCell id="HHpRpX6-WKTF--eh4rhF-83" value="" style="edgeStyle=orthogonalEdgeStyle;rounded=0;orthogonalLoop=1;jettySize=auto;html=1;" parent="WIyWlLk6GJQsqaUBKTNV-1" source="HHpRpX6-WKTF--eh4rhF-80" target="HHpRpX6-WKTF--eh4rhF-82" edge="1">
          <mxGeometry relative="1" as="geometry" />
        </mxCell>
        <mxCell id="HHpRpX6-WKTF--eh4rhF-80" value="stack = [(start_x, start_y)]" style="rounded=1;whiteSpace=wrap;html=1;absoluteArcSize=1;arcSize=14;strokeWidth=2;" parent="WIyWlLk6GJQsqaUBKTNV-1" vertex="1">
          <mxGeometry x="1195" y="785" width="170" height="85" as="geometry" />
        </mxCell>
        <mxCell id="HHpRpX6-WKTF--eh4rhF-88" value="" style="edgeStyle=orthogonalEdgeStyle;rounded=0;orthogonalLoop=1;jettySize=auto;html=1;" parent="WIyWlLk6GJQsqaUBKTNV-1" source="HHpRpX6-WKTF--eh4rhF-82" target="HHpRpX6-WKTF--eh4rhF-87" edge="1">
          <mxGeometry relative="1" as="geometry" />
        </mxCell>
        <mxCell id="HHpRpX6-WKTF--eh4rhF-82" value="visited = set of stack" style="rounded=1;whiteSpace=wrap;html=1;absoluteArcSize=1;arcSize=14;strokeWidth=2;" parent="WIyWlLk6GJQsqaUBKTNV-1" vertex="1">
          <mxGeometry x="1195" y="902.5" width="170" height="85" as="geometry" />
        </mxCell>
        <mxCell id="HHpRpX6-WKTF--eh4rhF-91" value="" style="edgeStyle=orthogonalEdgeStyle;rounded=0;orthogonalLoop=1;jettySize=auto;html=1;" parent="WIyWlLk6GJQsqaUBKTNV-1" source="HHpRpX6-WKTF--eh4rhF-84" target="HHpRpX6-WKTF--eh4rhF-86" edge="1">
          <mxGeometry relative="1" as="geometry" />
        </mxCell>
        <mxCell id="HHpRpX6-WKTF--eh4rhF-143" value="True" style="edgeLabel;html=1;align=center;verticalAlign=middle;resizable=0;points=[];" parent="HHpRpX6-WKTF--eh4rhF-91" vertex="1" connectable="0">
          <mxGeometry x="-0.2698" relative="1" as="geometry">
            <mxPoint as="offset" />
          </mxGeometry>
        </mxCell>
        <mxCell id="HHpRpX6-WKTF--eh4rhF-137" value="" style="edgeStyle=orthogonalEdgeStyle;rounded=0;orthogonalLoop=1;jettySize=auto;html=1;" parent="WIyWlLk6GJQsqaUBKTNV-1" source="HHpRpX6-WKTF--eh4rhF-84" target="HHpRpX6-WKTF--eh4rhF-136" edge="1">
          <mxGeometry relative="1" as="geometry" />
        </mxCell>
        <mxCell id="HHpRpX6-WKTF--eh4rhF-144" value="False" style="edgeLabel;html=1;align=center;verticalAlign=middle;resizable=0;points=[];" parent="HHpRpX6-WKTF--eh4rhF-137" vertex="1" connectable="0">
          <mxGeometry x="-0.3188" y="1" relative="1" as="geometry">
            <mxPoint as="offset" />
          </mxGeometry>
        </mxCell>
        <mxCell id="HHpRpX6-WKTF--eh4rhF-84" value="while stack is not empty" style="strokeWidth=2;html=1;shape=mxgraph.flowchart.decision;whiteSpace=wrap;" parent="WIyWlLk6GJQsqaUBKTNV-1" vertex="1">
          <mxGeometry x="1706.8999999999999" y="135" width="175" height="110" as="geometry" />
        </mxCell>
        <mxCell id="HHpRpX6-WKTF--eh4rhF-93" value="" style="edgeStyle=orthogonalEdgeStyle;rounded=0;orthogonalLoop=1;jettySize=auto;html=1;" parent="WIyWlLk6GJQsqaUBKTNV-1" source="HHpRpX6-WKTF--eh4rhF-86" target="HHpRpX6-WKTF--eh4rhF-92" edge="1">
          <mxGeometry relative="1" as="geometry" />
        </mxCell>
        <mxCell id="HHpRpX6-WKTF--eh4rhF-86" value="x, y = the last member of stack" style="rounded=1;whiteSpace=wrap;html=1;absoluteArcSize=1;arcSize=14;strokeWidth=2;" parent="WIyWlLk6GJQsqaUBKTNV-1" vertex="1">
          <mxGeometry x="1709.3999999999999" y="283" width="170" height="85" as="geometry" />
        </mxCell>
        <mxCell id="HHpRpX6-WKTF--eh4rhF-87" value="A" style="strokeWidth=2;html=1;shape=mxgraph.flowchart.start_2;whiteSpace=wrap;" parent="WIyWlLk6GJQsqaUBKTNV-1" vertex="1">
          <mxGeometry x="1252.5" y="1025" width="55" height="50" as="geometry" />
        </mxCell>
        <mxCell id="HHpRpX6-WKTF--eh4rhF-90" value="" style="edgeStyle=orthogonalEdgeStyle;rounded=0;orthogonalLoop=1;jettySize=auto;html=1;" parent="WIyWlLk6GJQsqaUBKTNV-1" source="HHpRpX6-WKTF--eh4rhF-89" target="HHpRpX6-WKTF--eh4rhF-84" edge="1">
          <mxGeometry relative="1" as="geometry" />
        </mxCell>
        <mxCell id="HHpRpX6-WKTF--eh4rhF-89" value="A" style="strokeWidth=2;html=1;shape=mxgraph.flowchart.start_2;whiteSpace=wrap;" parent="WIyWlLk6GJQsqaUBKTNV-1" vertex="1">
          <mxGeometry x="1766.8999999999999" y="40" width="55" height="50" as="geometry" />
        </mxCell>
        <mxCell id="HHpRpX6-WKTF--eh4rhF-95" value="" style="edgeStyle=orthogonalEdgeStyle;rounded=0;orthogonalLoop=1;jettySize=auto;html=1;" parent="WIyWlLk6GJQsqaUBKTNV-1" source="HHpRpX6-WKTF--eh4rhF-92" target="HHpRpX6-WKTF--eh4rhF-94" edge="1">
          <mxGeometry relative="1" as="geometry">
            <Array as="points">
              <mxPoint x="1910.03" y="443" />
              <mxPoint x="1910.03" y="320" />
            </Array>
          </mxGeometry>
        </mxCell>
        <mxCell id="HHpRpX6-WKTF--eh4rhF-92" value="shuffle list directions" style="rounded=1;whiteSpace=wrap;html=1;absoluteArcSize=1;arcSize=14;strokeWidth=2;" parent="WIyWlLk6GJQsqaUBKTNV-1" vertex="1">
          <mxGeometry x="1709.3999999999999" y="400.5" width="170" height="85" as="geometry" />
        </mxCell>
        <mxCell id="HHpRpX6-WKTF--eh4rhF-98" value="" style="edgeStyle=orthogonalEdgeStyle;rounded=0;orthogonalLoop=1;jettySize=auto;html=1;" parent="WIyWlLk6GJQsqaUBKTNV-1" source="HHpRpX6-WKTF--eh4rhF-94" target="HHpRpX6-WKTF--eh4rhF-97" edge="1">
          <mxGeometry relative="1" as="geometry" />
        </mxCell>
        <mxCell id="HHpRpX6-WKTF--eh4rhF-94" value="found_path = False" style="rounded=1;whiteSpace=wrap;html=1;absoluteArcSize=1;arcSize=14;strokeWidth=2;" parent="WIyWlLk6GJQsqaUBKTNV-1" vertex="1">
          <mxGeometry x="1940.62" y="283" width="170" height="85" as="geometry" />
        </mxCell>
        <mxCell id="HHpRpX6-WKTF--eh4rhF-100" value="" style="edgeStyle=orthogonalEdgeStyle;rounded=0;orthogonalLoop=1;jettySize=auto;html=1;" parent="WIyWlLk6GJQsqaUBKTNV-1" source="HHpRpX6-WKTF--eh4rhF-97" target="HHpRpX6-WKTF--eh4rhF-99" edge="1">
          <mxGeometry relative="1" as="geometry" />
        </mxCell>
        <mxCell id="HHpRpX6-WKTF--eh4rhF-97" value="i = 0" style="rounded=1;whiteSpace=wrap;html=1;absoluteArcSize=1;arcSize=14;strokeWidth=2;" parent="WIyWlLk6GJQsqaUBKTNV-1" vertex="1">
          <mxGeometry x="1951.87" y="408" width="147.5" height="60" as="geometry" />
        </mxCell>
        <mxCell id="HHpRpX6-WKTF--eh4rhF-102" value="" style="edgeStyle=orthogonalEdgeStyle;rounded=0;orthogonalLoop=1;jettySize=auto;html=1;" parent="WIyWlLk6GJQsqaUBKTNV-1" source="HHpRpX6-WKTF--eh4rhF-99" target="HHpRpX6-WKTF--eh4rhF-101" edge="1">
          <mxGeometry relative="1" as="geometry" />
        </mxCell>
        <mxCell id="HHpRpX6-WKTF--eh4rhF-145" value="True" style="edgeLabel;html=1;align=center;verticalAlign=middle;resizable=0;points=[];" parent="HHpRpX6-WKTF--eh4rhF-102" vertex="1" connectable="0">
          <mxGeometry x="-0.25" relative="1" as="geometry">
            <mxPoint as="offset" />
          </mxGeometry>
        </mxCell>
        <mxCell id="HHpRpX6-WKTF--eh4rhF-99" value="while i &amp;lt; the number of members in direction" style="strokeWidth=2;html=1;shape=mxgraph.flowchart.decision;whiteSpace=wrap;" parent="WIyWlLk6GJQsqaUBKTNV-1" vertex="1">
          <mxGeometry x="1939.37" y="570" width="172.5" height="120" as="geometry" />
        </mxCell>
        <mxCell id="HHpRpX6-WKTF--eh4rhF-105" value="" style="edgeStyle=orthogonalEdgeStyle;rounded=0;orthogonalLoop=1;jettySize=auto;html=1;" parent="WIyWlLk6GJQsqaUBKTNV-1" source="HHpRpX6-WKTF--eh4rhF-101" target="HHpRpX6-WKTF--eh4rhF-104" edge="1">
          <mxGeometry relative="1" as="geometry" />
        </mxCell>
        <mxCell id="HHpRpX6-WKTF--eh4rhF-101" value="nx = x + dx" style="rounded=1;whiteSpace=wrap;html=1;absoluteArcSize=1;arcSize=14;strokeWidth=2;" parent="WIyWlLk6GJQsqaUBKTNV-1" vertex="1">
          <mxGeometry x="1961.87" y="730" width="127.5" height="50" as="geometry" />
        </mxCell>
        <mxCell id="HHpRpX6-WKTF--eh4rhF-108" value="" style="edgeStyle=orthogonalEdgeStyle;rounded=0;orthogonalLoop=1;jettySize=auto;html=1;" parent="WIyWlLk6GJQsqaUBKTNV-1" source="HHpRpX6-WKTF--eh4rhF-104" target="HHpRpX6-WKTF--eh4rhF-107" edge="1">
          <mxGeometry relative="1" as="geometry" />
        </mxCell>
        <mxCell id="HHpRpX6-WKTF--eh4rhF-104" value="ny = y + dy" style="rounded=1;whiteSpace=wrap;html=1;absoluteArcSize=1;arcSize=14;strokeWidth=2;" parent="WIyWlLk6GJQsqaUBKTNV-1" vertex="1">
          <mxGeometry x="1810.06" y="730" width="127.5" height="50" as="geometry" />
        </mxCell>
        <mxCell id="HHpRpX6-WKTF--eh4rhF-110" value="" style="edgeStyle=orthogonalEdgeStyle;rounded=0;orthogonalLoop=1;jettySize=auto;html=1;" parent="WIyWlLk6GJQsqaUBKTNV-1" source="HHpRpX6-WKTF--eh4rhF-107" target="HHpRpX6-WKTF--eh4rhF-109" edge="1">
          <mxGeometry relative="1" as="geometry" />
        </mxCell>
        <mxCell id="HHpRpX6-WKTF--eh4rhF-147" value="True" style="edgeLabel;html=1;align=center;verticalAlign=middle;resizable=0;points=[];" parent="HHpRpX6-WKTF--eh4rhF-110" vertex="1" connectable="0">
          <mxGeometry x="-0.2164" relative="1" as="geometry">
            <mxPoint as="offset" />
          </mxGeometry>
        </mxCell>
        <mxCell id="HHpRpX6-WKTF--eh4rhF-120" value="" style="edgeStyle=orthogonalEdgeStyle;rounded=0;orthogonalLoop=1;jettySize=auto;html=1;" parent="WIyWlLk6GJQsqaUBKTNV-1" source="HHpRpX6-WKTF--eh4rhF-107" target="HHpRpX6-WKTF--eh4rhF-119" edge="1">
          <mxGeometry relative="1" as="geometry" />
        </mxCell>
        <mxCell id="HHpRpX6-WKTF--eh4rhF-148" value="False" style="edgeLabel;html=1;align=center;verticalAlign=middle;resizable=0;points=[];" parent="HHpRpX6-WKTF--eh4rhF-120" vertex="1" connectable="0">
          <mxGeometry x="-0.2267" y="-2" relative="1" as="geometry">
            <mxPoint x="2" y="3" as="offset" />
          </mxGeometry>
        </mxCell>
        <mxCell id="HHpRpX6-WKTF--eh4rhF-107" value="1 &amp;lt;= nx &amp;lt; height - 1 and&amp;nbsp;&lt;div&gt;1 &amp;lt;= ny &amp;lt; width - 1 and&amp;nbsp;&lt;/div&gt;&lt;div&gt;member position [nx, ny]&amp;nbsp;&lt;/div&gt;&lt;div&gt;in grid == 1&lt;/div&gt;" style="strokeWidth=2;html=1;shape=mxgraph.flowchart.decision;whiteSpace=wrap;" parent="WIyWlLk6GJQsqaUBKTNV-1" vertex="1">
          <mxGeometry x="1930.03" y="835" width="208.75" height="140" as="geometry" />
        </mxCell>
        <mxCell id="HHpRpX6-WKTF--eh4rhF-112" value="" style="edgeStyle=orthogonalEdgeStyle;rounded=0;orthogonalLoop=1;jettySize=auto;html=1;" parent="WIyWlLk6GJQsqaUBKTNV-1" source="HHpRpX6-WKTF--eh4rhF-109" target="HHpRpX6-WKTF--eh4rhF-111" edge="1">
          <mxGeometry relative="1" as="geometry" />
        </mxCell>
        <mxCell id="HHpRpX6-WKTF--eh4rhF-109" value="grid[nx][ny] = 0" style="rounded=1;whiteSpace=wrap;html=1;absoluteArcSize=1;arcSize=14;strokeWidth=2;" parent="WIyWlLk6GJQsqaUBKTNV-1" vertex="1">
          <mxGeometry x="1560.03" y="862.5" width="170" height="85" as="geometry" />
        </mxCell>
        <mxCell id="HHpRpX6-WKTF--eh4rhF-114" value="" style="edgeStyle=orthogonalEdgeStyle;rounded=0;orthogonalLoop=1;jettySize=auto;html=1;" parent="WIyWlLk6GJQsqaUBKTNV-1" source="HHpRpX6-WKTF--eh4rhF-111" target="HHpRpX6-WKTF--eh4rhF-113" edge="1">
          <mxGeometry relative="1" as="geometry" />
        </mxCell>
        <mxCell id="HHpRpX6-WKTF--eh4rhF-111" value="insert (nx, ny) into stack" style="rounded=1;whiteSpace=wrap;html=1;absoluteArcSize=1;arcSize=14;strokeWidth=2;" parent="WIyWlLk6GJQsqaUBKTNV-1" vertex="1">
          <mxGeometry x="1560.03" y="980" width="170" height="85" as="geometry" />
        </mxCell>
        <mxCell id="HHpRpX6-WKTF--eh4rhF-116" value="" style="edgeStyle=orthogonalEdgeStyle;rounded=0;orthogonalLoop=1;jettySize=auto;html=1;" parent="WIyWlLk6GJQsqaUBKTNV-1" source="HHpRpX6-WKTF--eh4rhF-113" target="HHpRpX6-WKTF--eh4rhF-115" edge="1">
          <mxGeometry relative="1" as="geometry">
            <Array as="points">
              <mxPoint x="1760.03" y="1143" />
              <mxPoint x="1760.03" y="1023" />
            </Array>
          </mxGeometry>
        </mxCell>
        <mxCell id="HHpRpX6-WKTF--eh4rhF-113" value="add (nx, ny) into visited" style="rounded=1;whiteSpace=wrap;html=1;absoluteArcSize=1;arcSize=14;strokeWidth=2;" parent="WIyWlLk6GJQsqaUBKTNV-1" vertex="1">
          <mxGeometry x="1560.03" y="1100" width="170" height="85" as="geometry" />
        </mxCell>
        <mxCell id="HHpRpX6-WKTF--eh4rhF-118" value="" style="edgeStyle=orthogonalEdgeStyle;rounded=0;orthogonalLoop=1;jettySize=auto;html=1;" parent="WIyWlLk6GJQsqaUBKTNV-1" source="HHpRpX6-WKTF--eh4rhF-115" target="HHpRpX6-WKTF--eh4rhF-117" edge="1">
          <mxGeometry relative="1" as="geometry" />
        </mxCell>
        <mxCell id="HHpRpX6-WKTF--eh4rhF-115" value="found_path = True" style="rounded=1;whiteSpace=wrap;html=1;absoluteArcSize=1;arcSize=14;strokeWidth=2;" parent="WIyWlLk6GJQsqaUBKTNV-1" vertex="1">
          <mxGeometry x="1779.3999999999999" y="980" width="170" height="85" as="geometry" />
        </mxCell>
        <mxCell id="HHpRpX6-WKTF--eh4rhF-121" style="edgeStyle=orthogonalEdgeStyle;rounded=0;orthogonalLoop=1;jettySize=auto;html=1;entryX=0;entryY=0.5;entryDx=0;entryDy=0;" parent="WIyWlLk6GJQsqaUBKTNV-1" source="HHpRpX6-WKTF--eh4rhF-117" target="HHpRpX6-WKTF--eh4rhF-119" edge="1">
          <mxGeometry relative="1" as="geometry">
            <Array as="points">
              <mxPoint x="1864.06" y="1215" />
            </Array>
          </mxGeometry>
        </mxCell>
        <mxCell id="HHpRpX6-WKTF--eh4rhF-117" value="break" style="rounded=1;whiteSpace=wrap;html=1;absoluteArcSize=1;arcSize=14;strokeWidth=2;" parent="WIyWlLk6GJQsqaUBKTNV-1" vertex="1">
          <mxGeometry x="1779.3999999999999" y="1100" width="170" height="85" as="geometry" />
        </mxCell>
        <mxCell id="HHpRpX6-WKTF--eh4rhF-119" value="" style="ellipse;whiteSpace=wrap;html=1;strokeWidth=2;" parent="WIyWlLk6GJQsqaUBKTNV-1" vertex="1">
          <mxGeometry x="2017.68" y="1200" width="33.44" height="30" as="geometry" />
        </mxCell>
        <mxCell id="HHpRpX6-WKTF--eh4rhF-123" style="edgeStyle=orthogonalEdgeStyle;rounded=0;orthogonalLoop=1;jettySize=auto;html=1;entryX=1;entryY=0.5;entryDx=0;entryDy=0;entryPerimeter=0;" parent="WIyWlLk6GJQsqaUBKTNV-1" source="HHpRpX6-WKTF--eh4rhF-119" target="HHpRpX6-WKTF--eh4rhF-99" edge="1">
          <mxGeometry relative="1" as="geometry">
            <Array as="points">
              <mxPoint x="2230.0600000000004" y="1215" />
              <mxPoint x="2230.0600000000004" y="630" />
            </Array>
          </mxGeometry>
        </mxCell>
        <mxCell id="HHpRpX6-WKTF--eh4rhF-126" value="" style="edgeStyle=orthogonalEdgeStyle;rounded=0;orthogonalLoop=1;jettySize=auto;html=1;entryX=0.5;entryY=1;entryDx=0;entryDy=0;entryPerimeter=0;exitX=0;exitY=0.5;exitDx=0;exitDy=0;exitPerimeter=0;" parent="WIyWlLk6GJQsqaUBKTNV-1" source="HHpRpX6-WKTF--eh4rhF-99" target="HHpRpX6-WKTF--eh4rhF-125" edge="1">
          <mxGeometry relative="1" as="geometry">
            <mxPoint x="1708.03" y="805" as="sourcePoint" />
            <mxPoint x="1707.03" y="190" as="targetPoint" />
            <Array as="points">
              <mxPoint x="1536.03" y="630" />
            </Array>
          </mxGeometry>
        </mxCell>
        <mxCell id="HHpRpX6-WKTF--eh4rhF-146" value="False" style="edgeLabel;html=1;align=center;verticalAlign=middle;resizable=0;points=[];" parent="HHpRpX6-WKTF--eh4rhF-126" vertex="1" connectable="0">
          <mxGeometry x="-0.1711" y="3" relative="1" as="geometry">
            <mxPoint y="-3" as="offset" />
          </mxGeometry>
        </mxCell>
        <mxCell id="HHpRpX6-WKTF--eh4rhF-132" style="edgeStyle=orthogonalEdgeStyle;rounded=0;orthogonalLoop=1;jettySize=auto;html=1;entryX=1;entryY=0.5;entryDx=0;entryDy=0;" parent="WIyWlLk6GJQsqaUBKTNV-1" source="HHpRpX6-WKTF--eh4rhF-125" target="HHpRpX6-WKTF--eh4rhF-130" edge="1">
          <mxGeometry relative="1" as="geometry">
            <Array as="points">
              <mxPoint x="1660" y="525" />
              <mxPoint x="1660" y="244" />
            </Array>
          </mxGeometry>
        </mxCell>
        <mxCell id="HHpRpX6-WKTF--eh4rhF-125" value="Found_path is False" style="strokeWidth=2;html=1;shape=mxgraph.flowchart.decision;whiteSpace=wrap;" parent="WIyWlLk6GJQsqaUBKTNV-1" vertex="1">
          <mxGeometry x="1450" y="465" width="172.5" height="120" as="geometry" />
        </mxCell>
        <mxCell id="HHpRpX6-WKTF--eh4rhF-129" value="" style="edgeStyle=orthogonalEdgeStyle;rounded=0;orthogonalLoop=1;jettySize=auto;html=1;entryX=0.5;entryY=1;entryDx=0;entryDy=0;exitX=0.5;exitY=0;exitDx=0;exitDy=0;exitPerimeter=0;" parent="WIyWlLk6GJQsqaUBKTNV-1" source="HHpRpX6-WKTF--eh4rhF-125" target="HHpRpX6-WKTF--eh4rhF-128" edge="1">
          <mxGeometry relative="1" as="geometry">
            <mxPoint x="1536" y="465" as="sourcePoint" />
            <mxPoint x="1787" y="40" as="targetPoint" />
            <Array as="points" />
          </mxGeometry>
        </mxCell>
        <mxCell id="HHpRpX6-WKTF--eh4rhF-131" value="" style="edgeStyle=orthogonalEdgeStyle;rounded=0;orthogonalLoop=1;jettySize=auto;html=1;" parent="WIyWlLk6GJQsqaUBKTNV-1" source="HHpRpX6-WKTF--eh4rhF-128" target="HHpRpX6-WKTF--eh4rhF-130" edge="1">
          <mxGeometry relative="1" as="geometry" />
        </mxCell>
        <mxCell id="HHpRpX6-WKTF--eh4rhF-128" value="Remove the first member in stack" style="rounded=1;whiteSpace=wrap;html=1;absoluteArcSize=1;arcSize=14;strokeWidth=2;" parent="WIyWlLk6GJQsqaUBKTNV-1" vertex="1">
          <mxGeometry x="1451.25" y="330" width="170" height="85" as="geometry" />
        </mxCell>
        <mxCell id="HHpRpX6-WKTF--eh4rhF-130" value="" style="ellipse;whiteSpace=wrap;html=1;rounded=1;arcSize=14;strokeWidth=2;" parent="WIyWlLk6GJQsqaUBKTNV-1" vertex="1">
          <mxGeometry x="1522.5" y="230" width="27.5" height="27.5" as="geometry" />
        </mxCell>
        <mxCell id="HHpRpX6-WKTF--eh4rhF-133" style="edgeStyle=orthogonalEdgeStyle;rounded=0;orthogonalLoop=1;jettySize=auto;html=1;entryX=0;entryY=0.5;entryDx=0;entryDy=0;entryPerimeter=0;" parent="WIyWlLk6GJQsqaUBKTNV-1" source="HHpRpX6-WKTF--eh4rhF-130" target="HHpRpX6-WKTF--eh4rhF-84" edge="1">
          <mxGeometry relative="1" as="geometry">
            <Array as="points">
              <mxPoint x="1536.03" y="190" />
            </Array>
          </mxGeometry>
        </mxCell>
        <mxCell id="HHpRpX6-WKTF--eh4rhF-139" value="" style="edgeStyle=orthogonalEdgeStyle;rounded=0;orthogonalLoop=1;jettySize=auto;html=1;" parent="WIyWlLk6GJQsqaUBKTNV-1" source="HHpRpX6-WKTF--eh4rhF-136" target="HHpRpX6-WKTF--eh4rhF-138" edge="1">
          <mxGeometry relative="1" as="geometry" />
        </mxCell>
        <mxCell id="HHpRpX6-WKTF--eh4rhF-136" value="connect_path&lt;div&gt;(grid, visited)&lt;/div&gt;" style="shape=process;whiteSpace=wrap;html=1;backgroundOutline=1;" parent="WIyWlLk6GJQsqaUBKTNV-1" vertex="1">
          <mxGeometry x="2170" y="150" width="150" height="80" as="geometry" />
        </mxCell>
        <mxCell id="HHpRpX6-WKTF--eh4rhF-141" value="" style="edgeStyle=orthogonalEdgeStyle;rounded=0;orthogonalLoop=1;jettySize=auto;html=1;" parent="WIyWlLk6GJQsqaUBKTNV-1" source="HHpRpX6-WKTF--eh4rhF-138" target="HHpRpX6-WKTF--eh4rhF-140" edge="1">
          <mxGeometry relative="1" as="geometry" />
        </mxCell>
        <mxCell id="HHpRpX6-WKTF--eh4rhF-138" value="return grid" style="rounded=1;whiteSpace=wrap;html=1;absoluteArcSize=1;arcSize=14;strokeWidth=2;" parent="WIyWlLk6GJQsqaUBKTNV-1" vertex="1">
          <mxGeometry x="2175" y="291.5" width="140" height="57" as="geometry" />
        </mxCell>
        <mxCell id="HHpRpX6-WKTF--eh4rhF-140" value="End" style="strokeWidth=2;html=1;shape=mxgraph.flowchart.terminator;whiteSpace=wrap;" parent="WIyWlLk6GJQsqaUBKTNV-1" vertex="1">
          <mxGeometry x="2195" y="410" width="100" height="60" as="geometry" />
        </mxCell>
        <mxCell id="WYulLBecAvqs4E-bQofC-0" value="connected_path" style="shape=process;whiteSpace=wrap;html=1;backgroundOutline=1;" parent="WIyWlLk6GJQsqaUBKTNV-1" vertex="1">
          <mxGeometry x="2520" y="40" width="180" height="80" as="geometry" />
        </mxCell>
        <mxCell id="WYulLBecAvqs4E-bQofC-1" value="" style="edgeStyle=orthogonalEdgeStyle;rounded=0;orthogonalLoop=1;jettySize=auto;html=1;" parent="WIyWlLk6GJQsqaUBKTNV-1" edge="1">
          <mxGeometry relative="1" as="geometry">
            <mxPoint x="2850" y="220" as="sourcePoint" />
            <mxPoint x="2850" y="250" as="targetPoint" />
          </mxGeometry>
        </mxCell>
        <mxCell id="WYulLBecAvqs4E-bQofC-2" value="connected_path&lt;br&gt;(grid, visited)" style="shape=process;whiteSpace=wrap;html=1;backgroundOutline=1;" parent="WIyWlLk6GJQsqaUBKTNV-1" vertex="1">
          <mxGeometry x="2760" y="140" width="180" height="80" as="geometry" />
        </mxCell>
        <mxCell id="WYulLBecAvqs4E-bQofC-3" value="" style="edgeStyle=orthogonalEdgeStyle;rounded=0;orthogonalLoop=1;jettySize=auto;html=1;" parent="WIyWlLk6GJQsqaUBKTNV-1" source="WYulLBecAvqs4E-bQofC-4" target="WYulLBecAvqs4E-bQofC-6" edge="1">
          <mxGeometry relative="1" as="geometry" />
        </mxCell>
        <mxCell id="WYulLBecAvqs4E-bQofC-4" value="visited = list(visited)" style="rounded=1;whiteSpace=wrap;html=1;absoluteArcSize=1;arcSize=14;strokeWidth=2;" parent="WIyWlLk6GJQsqaUBKTNV-1" vertex="1">
          <mxGeometry x="2770" y="250" width="160" height="70" as="geometry" />
        </mxCell>
        <mxCell id="WYulLBecAvqs4E-bQofC-5" value="" style="edgeStyle=orthogonalEdgeStyle;rounded=0;orthogonalLoop=1;jettySize=auto;html=1;" parent="WIyWlLk6GJQsqaUBKTNV-1" source="WYulLBecAvqs4E-bQofC-6" target="WYulLBecAvqs4E-bQofC-8" edge="1">
          <mxGeometry relative="1" as="geometry" />
        </mxCell>
        <mxCell id="WYulLBecAvqs4E-bQofC-6" value="shuffle list visited" style="rounded=1;whiteSpace=wrap;html=1;absoluteArcSize=1;arcSize=14;strokeWidth=2;" parent="WIyWlLk6GJQsqaUBKTNV-1" vertex="1">
          <mxGeometry x="2777.5" y="350" width="145" height="60" as="geometry" />
        </mxCell>
        <mxCell id="WYulLBecAvqs4E-bQofC-7" value="" style="edgeStyle=orthogonalEdgeStyle;rounded=0;orthogonalLoop=1;jettySize=auto;html=1;" parent="WIyWlLk6GJQsqaUBKTNV-1" source="WYulLBecAvqs4E-bQofC-8" edge="1">
          <mxGeometry relative="1" as="geometry">
            <mxPoint x="2850.0344827586205" y="535" as="targetPoint" />
          </mxGeometry>
        </mxCell>
        <mxCell id="WYulLBecAvqs4E-bQofC-8" value="i = 0" style="rounded=1;whiteSpace=wrap;html=1;absoluteArcSize=1;arcSize=14;strokeWidth=2;" parent="WIyWlLk6GJQsqaUBKTNV-1" vertex="1">
          <mxGeometry x="2782.5" y="440" width="135" height="60" as="geometry" />
        </mxCell>
        <mxCell id="WYulLBecAvqs4E-bQofC-9" value="" style="edgeStyle=orthogonalEdgeStyle;rounded=0;orthogonalLoop=1;jettySize=auto;html=1;" parent="WIyWlLk6GJQsqaUBKTNV-1" target="WYulLBecAvqs4E-bQofC-12" edge="1">
          <mxGeometry relative="1" as="geometry">
            <mxPoint x="2850.0344827586205" y="635" as="sourcePoint" />
          </mxGeometry>
        </mxCell>
        <mxCell id="WYulLBecAvqs4E-bQofC-110" value="True" style="edgeLabel;html=1;align=center;verticalAlign=middle;resizable=0;points=[];" parent="WYulLBecAvqs4E-bQofC-9" vertex="1" connectable="0">
          <mxGeometry x="-0.0284" y="-1" relative="1" as="geometry">
            <mxPoint as="offset" />
          </mxGeometry>
        </mxCell>
        <mxCell id="WYulLBecAvqs4E-bQofC-11" value="" style="edgeStyle=orthogonalEdgeStyle;rounded=0;orthogonalLoop=1;jettySize=auto;html=1;entryX=0.5;entryY=0;entryDx=0;entryDy=0;entryPerimeter=0;" parent="WIyWlLk6GJQsqaUBKTNV-1" source="WYulLBecAvqs4E-bQofC-20" target="WYulLBecAvqs4E-bQofC-23" edge="1">
          <mxGeometry relative="1" as="geometry">
            <mxPoint x="2850" y="845" as="targetPoint" />
          </mxGeometry>
        </mxCell>
        <mxCell id="WYulLBecAvqs4E-bQofC-12" value="x1, y1 = visited[i]" style="rounded=1;whiteSpace=wrap;html=1;absoluteArcSize=1;arcSize=14;strokeWidth=2;" parent="WIyWlLk6GJQsqaUBKTNV-1" vertex="1">
          <mxGeometry x="2793.75" y="680" width="112.5" height="50" as="geometry" />
        </mxCell>
        <mxCell id="WYulLBecAvqs4E-bQofC-21" value="" style="edgeStyle=orthogonalEdgeStyle;rounded=0;orthogonalLoop=1;jettySize=auto;html=1;" parent="WIyWlLk6GJQsqaUBKTNV-1" source="WYulLBecAvqs4E-bQofC-12" target="WYulLBecAvqs4E-bQofC-20" edge="1">
          <mxGeometry relative="1" as="geometry">
            <mxPoint x="2850" y="730" as="sourcePoint" />
            <mxPoint x="2850" y="860" as="targetPoint" />
          </mxGeometry>
        </mxCell>
        <mxCell id="WYulLBecAvqs4E-bQofC-20" value="x2, y2 = visited[i+1]" style="rounded=1;whiteSpace=wrap;html=1;absoluteArcSize=1;arcSize=14;strokeWidth=2;" parent="WIyWlLk6GJQsqaUBKTNV-1" vertex="1">
          <mxGeometry x="2793.75" y="760" width="112.5" height="50" as="geometry" />
        </mxCell>
        <mxCell id="WYulLBecAvqs4E-bQofC-85" value="" style="edgeStyle=orthogonalEdgeStyle;rounded=0;orthogonalLoop=1;jettySize=auto;html=1;" parent="WIyWlLk6GJQsqaUBKTNV-1" source="WYulLBecAvqs4E-bQofC-22" target="WYulLBecAvqs4E-bQofC-84" edge="1">
          <mxGeometry relative="1" as="geometry" />
        </mxCell>
        <mxCell id="WYulLBecAvqs4E-bQofC-119" value="False" style="edgeLabel;html=1;align=center;verticalAlign=middle;resizable=0;points=[];" parent="WYulLBecAvqs4E-bQofC-85" vertex="1" connectable="0">
          <mxGeometry x="-0.0211" relative="1" as="geometry">
            <mxPoint as="offset" />
          </mxGeometry>
        </mxCell>
        <mxCell id="WYulLBecAvqs4E-bQofC-22" value="while i &amp;lt; (the number of visited - 1)" style="rhombus;whiteSpace=wrap;html=1;" parent="WIyWlLk6GJQsqaUBKTNV-1" vertex="1">
          <mxGeometry x="2740" y="534" width="220" height="101" as="geometry" />
        </mxCell>
        <mxCell id="WYulLBecAvqs4E-bQofC-27" value="" style="edgeStyle=orthogonalEdgeStyle;rounded=0;orthogonalLoop=1;jettySize=auto;html=1;" parent="WIyWlLk6GJQsqaUBKTNV-1" source="WYulLBecAvqs4E-bQofC-23" target="WYulLBecAvqs4E-bQofC-26" edge="1">
          <mxGeometry relative="1" as="geometry" />
        </mxCell>
        <mxCell id="WYulLBecAvqs4E-bQofC-111" value="True" style="edgeLabel;html=1;align=center;verticalAlign=middle;resizable=0;points=[];" parent="WYulLBecAvqs4E-bQofC-27" vertex="1" connectable="0">
          <mxGeometry x="-0.1008" relative="1" as="geometry">
            <mxPoint as="offset" />
          </mxGeometry>
        </mxCell>
        <mxCell id="WYulLBecAvqs4E-bQofC-23" value="y1 = y2" style="strokeWidth=2;html=1;shape=mxgraph.flowchart.decision;whiteSpace=wrap;" parent="WIyWlLk6GJQsqaUBKTNV-1" vertex="1">
          <mxGeometry x="2765" y="835" width="170" height="100" as="geometry" />
        </mxCell>
        <mxCell id="WYulLBecAvqs4E-bQofC-31" value="" style="edgeStyle=orthogonalEdgeStyle;rounded=0;orthogonalLoop=1;jettySize=auto;html=1;" parent="WIyWlLk6GJQsqaUBKTNV-1" source="WYulLBecAvqs4E-bQofC-24" target="WYulLBecAvqs4E-bQofC-30" edge="1">
          <mxGeometry relative="1" as="geometry" />
        </mxCell>
        <mxCell id="WYulLBecAvqs4E-bQofC-120" value="True" style="edgeLabel;html=1;align=center;verticalAlign=middle;resizable=0;points=[];" parent="WYulLBecAvqs4E-bQofC-31" vertex="1" connectable="0">
          <mxGeometry x="-0.0944" y="-1" relative="1" as="geometry">
            <mxPoint as="offset" />
          </mxGeometry>
        </mxCell>
        <mxCell id="WYulLBecAvqs4E-bQofC-24" value="while j &amp;lt; (max(x1, x2) + 1)" style="strokeWidth=2;html=1;shape=mxgraph.flowchart.decision;whiteSpace=wrap;" parent="WIyWlLk6GJQsqaUBKTNV-1" vertex="1">
          <mxGeometry x="2765" y="1060" width="170" height="100" as="geometry" />
        </mxCell>
        <mxCell id="WYulLBecAvqs4E-bQofC-28" value="" style="edgeStyle=orthogonalEdgeStyle;rounded=0;orthogonalLoop=1;jettySize=auto;html=1;" parent="WIyWlLk6GJQsqaUBKTNV-1" source="WYulLBecAvqs4E-bQofC-26" target="WYulLBecAvqs4E-bQofC-24" edge="1">
          <mxGeometry relative="1" as="geometry" />
        </mxCell>
        <mxCell id="WYulLBecAvqs4E-bQofC-26" value="j = min(x1, x2)" style="rounded=1;whiteSpace=wrap;html=1;absoluteArcSize=1;arcSize=14;strokeWidth=2;" parent="WIyWlLk6GJQsqaUBKTNV-1" vertex="1">
          <mxGeometry x="2793.75" y="980" width="112.5" height="50" as="geometry" />
        </mxCell>
        <mxCell id="WYulLBecAvqs4E-bQofC-33" value="" style="edgeStyle=orthogonalEdgeStyle;rounded=0;orthogonalLoop=1;jettySize=auto;html=1;" parent="WIyWlLk6GJQsqaUBKTNV-1" source="WYulLBecAvqs4E-bQofC-30" target="WYulLBecAvqs4E-bQofC-32" edge="1">
          <mxGeometry relative="1" as="geometry" />
        </mxCell>
        <mxCell id="WYulLBecAvqs4E-bQofC-30" value="grid[j][y1] = 0" style="rounded=1;whiteSpace=wrap;html=1;absoluteArcSize=1;arcSize=14;strokeWidth=2;" parent="WIyWlLk6GJQsqaUBKTNV-1" vertex="1">
          <mxGeometry x="2770" y="1200" width="160" height="70" as="geometry" />
        </mxCell>
        <mxCell id="WYulLBecAvqs4E-bQofC-32" value="j = j + 1" style="rounded=1;whiteSpace=wrap;html=1;absoluteArcSize=1;arcSize=14;strokeWidth=2;" parent="WIyWlLk6GJQsqaUBKTNV-1" vertex="1">
          <mxGeometry x="2793.75" y="1320" width="112.5" height="50" as="geometry" />
        </mxCell>
        <mxCell id="WYulLBecAvqs4E-bQofC-49" value="" style="edgeStyle=orthogonalEdgeStyle;rounded=0;orthogonalLoop=1;jettySize=auto;html=1;" parent="WIyWlLk6GJQsqaUBKTNV-1" source="WYulLBecAvqs4E-bQofC-36" target="WYulLBecAvqs4E-bQofC-44" edge="1">
          <mxGeometry relative="1" as="geometry" />
        </mxCell>
        <mxCell id="WYulLBecAvqs4E-bQofC-112" value="True" style="edgeLabel;html=1;align=center;verticalAlign=middle;resizable=0;points=[];" parent="WYulLBecAvqs4E-bQofC-49" vertex="1" connectable="0">
          <mxGeometry x="-0.1411" relative="1" as="geometry">
            <mxPoint as="offset" />
          </mxGeometry>
        </mxCell>
        <mxCell id="WYulLBecAvqs4E-bQofC-60" value="" style="edgeStyle=orthogonalEdgeStyle;rounded=0;orthogonalLoop=1;jettySize=auto;html=1;" parent="WIyWlLk6GJQsqaUBKTNV-1" source="WYulLBecAvqs4E-bQofC-36" target="WYulLBecAvqs4E-bQofC-51" edge="1">
          <mxGeometry relative="1" as="geometry" />
        </mxCell>
        <mxCell id="WYulLBecAvqs4E-bQofC-117" value="False" style="edgeLabel;html=1;align=center;verticalAlign=middle;resizable=0;points=[];" parent="WYulLBecAvqs4E-bQofC-60" vertex="1" connectable="0">
          <mxGeometry x="0.0154" y="1" relative="1" as="geometry">
            <mxPoint as="offset" />
          </mxGeometry>
        </mxCell>
        <mxCell id="WYulLBecAvqs4E-bQofC-36" value="y1 = y2" style="strokeWidth=2;html=1;shape=mxgraph.flowchart.decision;whiteSpace=wrap;" parent="WIyWlLk6GJQsqaUBKTNV-1" vertex="1">
          <mxGeometry x="3040" y="835" width="170" height="100" as="geometry" />
        </mxCell>
        <mxCell id="WYulLBecAvqs4E-bQofC-39" style="edgeStyle=orthogonalEdgeStyle;rounded=0;orthogonalLoop=1;jettySize=auto;html=1;exitX=0.5;exitY=1;exitDx=0;exitDy=0;entryX=0;entryY=0.5;entryDx=0;entryDy=0;entryPerimeter=0;" parent="WIyWlLk6GJQsqaUBKTNV-1" source="WYulLBecAvqs4E-bQofC-32" target="WYulLBecAvqs4E-bQofC-24" edge="1">
          <mxGeometry relative="1" as="geometry">
            <Array as="points">
              <mxPoint x="2850" y="1400" />
              <mxPoint x="2730" y="1400" />
              <mxPoint x="2730" y="1110" />
            </Array>
          </mxGeometry>
        </mxCell>
        <mxCell id="WYulLBecAvqs4E-bQofC-40" style="edgeStyle=orthogonalEdgeStyle;rounded=0;orthogonalLoop=1;jettySize=auto;html=1;exitX=1;exitY=0.5;exitDx=0;exitDy=0;exitPerimeter=0;entryX=0;entryY=0.5;entryDx=0;entryDy=0;entryPerimeter=0;" parent="WIyWlLk6GJQsqaUBKTNV-1" source="WYulLBecAvqs4E-bQofC-23" target="WYulLBecAvqs4E-bQofC-36" edge="1">
          <mxGeometry relative="1" as="geometry" />
        </mxCell>
        <mxCell id="WYulLBecAvqs4E-bQofC-118" value="False" style="edgeLabel;html=1;align=center;verticalAlign=middle;resizable=0;points=[];" parent="WYulLBecAvqs4E-bQofC-40" vertex="1" connectable="0">
          <mxGeometry x="0.0138" relative="1" as="geometry">
            <mxPoint as="offset" />
          </mxGeometry>
        </mxCell>
        <mxCell id="WYulLBecAvqs4E-bQofC-41" value="" style="edgeStyle=orthogonalEdgeStyle;rounded=0;orthogonalLoop=1;jettySize=auto;html=1;" parent="WIyWlLk6GJQsqaUBKTNV-1" source="WYulLBecAvqs4E-bQofC-42" target="WYulLBecAvqs4E-bQofC-46" edge="1">
          <mxGeometry relative="1" as="geometry" />
        </mxCell>
        <mxCell id="WYulLBecAvqs4E-bQofC-121" value="True" style="edgeLabel;html=1;align=center;verticalAlign=middle;resizable=0;points=[];" parent="WYulLBecAvqs4E-bQofC-41" vertex="1" connectable="0">
          <mxGeometry x="-0.2194" relative="1" as="geometry">
            <mxPoint as="offset" />
          </mxGeometry>
        </mxCell>
        <mxCell id="WYulLBecAvqs4E-bQofC-42" value="while j &amp;lt; (max(y1, y2) + 1)" style="strokeWidth=2;html=1;shape=mxgraph.flowchart.decision;whiteSpace=wrap;" parent="WIyWlLk6GJQsqaUBKTNV-1" vertex="1">
          <mxGeometry x="3040" y="1060" width="170" height="100" as="geometry" />
        </mxCell>
        <mxCell id="WYulLBecAvqs4E-bQofC-43" value="" style="edgeStyle=orthogonalEdgeStyle;rounded=0;orthogonalLoop=1;jettySize=auto;html=1;" parent="WIyWlLk6GJQsqaUBKTNV-1" source="WYulLBecAvqs4E-bQofC-44" target="WYulLBecAvqs4E-bQofC-42" edge="1">
          <mxGeometry relative="1" as="geometry" />
        </mxCell>
        <mxCell id="WYulLBecAvqs4E-bQofC-44" value="j = min(y1, y2)" style="rounded=1;whiteSpace=wrap;html=1;absoluteArcSize=1;arcSize=14;strokeWidth=2;" parent="WIyWlLk6GJQsqaUBKTNV-1" vertex="1">
          <mxGeometry x="3068.75" y="980" width="112.5" height="50" as="geometry" />
        </mxCell>
        <mxCell id="WYulLBecAvqs4E-bQofC-45" value="" style="edgeStyle=orthogonalEdgeStyle;rounded=0;orthogonalLoop=1;jettySize=auto;html=1;" parent="WIyWlLk6GJQsqaUBKTNV-1" source="WYulLBecAvqs4E-bQofC-46" target="WYulLBecAvqs4E-bQofC-47" edge="1">
          <mxGeometry relative="1" as="geometry" />
        </mxCell>
        <mxCell id="WYulLBecAvqs4E-bQofC-46" value="grid[x1][j] = 0" style="rounded=1;whiteSpace=wrap;html=1;absoluteArcSize=1;arcSize=14;strokeWidth=2;" parent="WIyWlLk6GJQsqaUBKTNV-1" vertex="1">
          <mxGeometry x="3045" y="1200" width="160" height="70" as="geometry" />
        </mxCell>
        <mxCell id="WYulLBecAvqs4E-bQofC-47" value="j = j + 1" style="rounded=1;whiteSpace=wrap;html=1;absoluteArcSize=1;arcSize=14;strokeWidth=2;" parent="WIyWlLk6GJQsqaUBKTNV-1" vertex="1">
          <mxGeometry x="3068.75" y="1320" width="112.5" height="50" as="geometry" />
        </mxCell>
        <mxCell id="WYulLBecAvqs4E-bQofC-48" style="edgeStyle=orthogonalEdgeStyle;rounded=0;orthogonalLoop=1;jettySize=auto;html=1;exitX=0.5;exitY=1;exitDx=0;exitDy=0;entryX=0;entryY=0.5;entryDx=0;entryDy=0;entryPerimeter=0;" parent="WIyWlLk6GJQsqaUBKTNV-1" source="WYulLBecAvqs4E-bQofC-47" target="WYulLBecAvqs4E-bQofC-42" edge="1">
          <mxGeometry relative="1" as="geometry">
            <Array as="points">
              <mxPoint x="3125" y="1400" />
              <mxPoint x="3005" y="1400" />
              <mxPoint x="3005" y="1110" />
            </Array>
          </mxGeometry>
        </mxCell>
        <mxCell id="WYulLBecAvqs4E-bQofC-50" value="" style="edgeStyle=orthogonalEdgeStyle;rounded=0;orthogonalLoop=1;jettySize=auto;html=1;" parent="WIyWlLk6GJQsqaUBKTNV-1" source="WYulLBecAvqs4E-bQofC-51" target="WYulLBecAvqs4E-bQofC-55" edge="1">
          <mxGeometry relative="1" as="geometry" />
        </mxCell>
        <mxCell id="WYulLBecAvqs4E-bQofC-113" value="True" style="edgeLabel;html=1;align=center;verticalAlign=middle;resizable=0;points=[];" parent="WYulLBecAvqs4E-bQofC-50" vertex="1" connectable="0">
          <mxGeometry x="-0.1277" relative="1" as="geometry">
            <mxPoint as="offset" />
          </mxGeometry>
        </mxCell>
        <mxCell id="WYulLBecAvqs4E-bQofC-51" value="y1 != y2 or x1 != x2" style="strokeWidth=2;html=1;shape=mxgraph.flowchart.decision;whiteSpace=wrap;" parent="WIyWlLk6GJQsqaUBKTNV-1" vertex="1">
          <mxGeometry x="3304.98" y="835" width="170" height="100" as="geometry" />
        </mxCell>
        <mxCell id="WYulLBecAvqs4E-bQofC-52" value="" style="edgeStyle=orthogonalEdgeStyle;rounded=0;orthogonalLoop=1;jettySize=auto;html=1;" parent="WIyWlLk6GJQsqaUBKTNV-1" source="WYulLBecAvqs4E-bQofC-53" target="WYulLBecAvqs4E-bQofC-57" edge="1">
          <mxGeometry relative="1" as="geometry" />
        </mxCell>
        <mxCell id="WYulLBecAvqs4E-bQofC-122" value="True" style="edgeLabel;html=1;align=center;verticalAlign=middle;resizable=0;points=[];" parent="WYulLBecAvqs4E-bQofC-52" vertex="1" connectable="0">
          <mxGeometry x="-0.1778" relative="1" as="geometry">
            <mxPoint as="offset" />
          </mxGeometry>
        </mxCell>
        <mxCell id="WYulLBecAvqs4E-bQofC-62" value="" style="edgeStyle=orthogonalEdgeStyle;rounded=0;orthogonalLoop=1;jettySize=auto;html=1;" parent="WIyWlLk6GJQsqaUBKTNV-1" source="WYulLBecAvqs4E-bQofC-53" target="WYulLBecAvqs4E-bQofC-61" edge="1">
          <mxGeometry relative="1" as="geometry" />
        </mxCell>
        <mxCell id="WYulLBecAvqs4E-bQofC-125" value="False" style="edgeLabel;html=1;align=center;verticalAlign=middle;resizable=0;points=[];" parent="WYulLBecAvqs4E-bQofC-62" vertex="1" connectable="0">
          <mxGeometry x="-0.0787" y="-1" relative="1" as="geometry">
            <mxPoint as="offset" />
          </mxGeometry>
        </mxCell>
        <mxCell id="WYulLBecAvqs4E-bQofC-53" value="while j &amp;lt; (max(x1, x2) + 1)" style="strokeWidth=2;html=1;shape=mxgraph.flowchart.decision;whiteSpace=wrap;" parent="WIyWlLk6GJQsqaUBKTNV-1" vertex="1">
          <mxGeometry x="3304.98" y="1060" width="170" height="100" as="geometry" />
        </mxCell>
        <mxCell id="WYulLBecAvqs4E-bQofC-54" value="" style="edgeStyle=orthogonalEdgeStyle;rounded=0;orthogonalLoop=1;jettySize=auto;html=1;" parent="WIyWlLk6GJQsqaUBKTNV-1" source="WYulLBecAvqs4E-bQofC-55" target="WYulLBecAvqs4E-bQofC-53" edge="1">
          <mxGeometry relative="1" as="geometry" />
        </mxCell>
        <mxCell id="WYulLBecAvqs4E-bQofC-55" value="j = min(x1, x2)" style="rounded=1;whiteSpace=wrap;html=1;absoluteArcSize=1;arcSize=14;strokeWidth=2;" parent="WIyWlLk6GJQsqaUBKTNV-1" vertex="1">
          <mxGeometry x="3333.73" y="980" width="112.5" height="50" as="geometry" />
        </mxCell>
        <mxCell id="WYulLBecAvqs4E-bQofC-56" value="" style="edgeStyle=orthogonalEdgeStyle;rounded=0;orthogonalLoop=1;jettySize=auto;html=1;" parent="WIyWlLk6GJQsqaUBKTNV-1" source="WYulLBecAvqs4E-bQofC-57" target="WYulLBecAvqs4E-bQofC-58" edge="1">
          <mxGeometry relative="1" as="geometry" />
        </mxCell>
        <mxCell id="WYulLBecAvqs4E-bQofC-57" value="grid[j][y2] = 0" style="rounded=1;whiteSpace=wrap;html=1;absoluteArcSize=1;arcSize=14;strokeWidth=2;" parent="WIyWlLk6GJQsqaUBKTNV-1" vertex="1">
          <mxGeometry x="3309.98" y="1200" width="160" height="70" as="geometry" />
        </mxCell>
        <mxCell id="WYulLBecAvqs4E-bQofC-58" value="j = j + 1" style="rounded=1;whiteSpace=wrap;html=1;absoluteArcSize=1;arcSize=14;strokeWidth=2;" parent="WIyWlLk6GJQsqaUBKTNV-1" vertex="1">
          <mxGeometry x="3333.73" y="1320" width="112.5" height="50" as="geometry" />
        </mxCell>
        <mxCell id="WYulLBecAvqs4E-bQofC-59" style="edgeStyle=orthogonalEdgeStyle;rounded=0;orthogonalLoop=1;jettySize=auto;html=1;exitX=0.5;exitY=1;exitDx=0;exitDy=0;entryX=0;entryY=0.5;entryDx=0;entryDy=0;entryPerimeter=0;" parent="WIyWlLk6GJQsqaUBKTNV-1" source="WYulLBecAvqs4E-bQofC-58" target="WYulLBecAvqs4E-bQofC-53" edge="1">
          <mxGeometry relative="1" as="geometry">
            <Array as="points">
              <mxPoint x="3389.98" y="1400" />
              <mxPoint x="3269.98" y="1400" />
              <mxPoint x="3269.98" y="1110" />
            </Array>
          </mxGeometry>
        </mxCell>
        <mxCell id="WYulLBecAvqs4E-bQofC-76" value="" style="edgeStyle=orthogonalEdgeStyle;rounded=0;orthogonalLoop=1;jettySize=auto;html=1;" parent="WIyWlLk6GJQsqaUBKTNV-1" source="WYulLBecAvqs4E-bQofC-61" target="WYulLBecAvqs4E-bQofC-71" edge="1">
          <mxGeometry relative="1" as="geometry" />
        </mxCell>
        <mxCell id="WYulLBecAvqs4E-bQofC-61" value="j = min(y1, y2)" style="rounded=1;whiteSpace=wrap;html=1;absoluteArcSize=1;arcSize=14;strokeWidth=2;" parent="WIyWlLk6GJQsqaUBKTNV-1" vertex="1">
          <mxGeometry x="3553.78" y="1085" width="112.5" height="50" as="geometry" />
        </mxCell>
        <mxCell id="WYulLBecAvqs4E-bQofC-70" value="" style="edgeStyle=orthogonalEdgeStyle;rounded=0;orthogonalLoop=1;jettySize=auto;html=1;" parent="WIyWlLk6GJQsqaUBKTNV-1" source="WYulLBecAvqs4E-bQofC-71" target="WYulLBecAvqs4E-bQofC-73" edge="1">
          <mxGeometry relative="1" as="geometry" />
        </mxCell>
        <mxCell id="WYulLBecAvqs4E-bQofC-126" value="True" style="edgeLabel;html=1;align=center;verticalAlign=middle;resizable=0;points=[];" parent="WYulLBecAvqs4E-bQofC-70" vertex="1" connectable="0">
          <mxGeometry x="-0.2389" y="-1" relative="1" as="geometry">
            <mxPoint as="offset" />
          </mxGeometry>
        </mxCell>
        <mxCell id="WYulLBecAvqs4E-bQofC-71" value="while j &amp;lt; (max(y1, y2) + 1)" style="strokeWidth=2;html=1;shape=mxgraph.flowchart.decision;whiteSpace=wrap;" parent="WIyWlLk6GJQsqaUBKTNV-1" vertex="1">
          <mxGeometry x="3525" y="1169" width="170" height="100" as="geometry" />
        </mxCell>
        <mxCell id="WYulLBecAvqs4E-bQofC-72" value="" style="edgeStyle=orthogonalEdgeStyle;rounded=0;orthogonalLoop=1;jettySize=auto;html=1;" parent="WIyWlLk6GJQsqaUBKTNV-1" source="WYulLBecAvqs4E-bQofC-73" target="WYulLBecAvqs4E-bQofC-74" edge="1">
          <mxGeometry relative="1" as="geometry" />
        </mxCell>
        <mxCell id="WYulLBecAvqs4E-bQofC-73" value="grid[x2][j] = 0" style="rounded=1;whiteSpace=wrap;html=1;absoluteArcSize=1;arcSize=14;strokeWidth=2;" parent="WIyWlLk6GJQsqaUBKTNV-1" vertex="1">
          <mxGeometry x="3530" y="1309" width="160" height="70" as="geometry" />
        </mxCell>
        <mxCell id="WYulLBecAvqs4E-bQofC-74" value="j = j + 1" style="rounded=1;whiteSpace=wrap;html=1;absoluteArcSize=1;arcSize=14;strokeWidth=2;" parent="WIyWlLk6GJQsqaUBKTNV-1" vertex="1">
          <mxGeometry x="3553.75" y="1429" width="112.5" height="50" as="geometry" />
        </mxCell>
        <mxCell id="WYulLBecAvqs4E-bQofC-75" style="edgeStyle=orthogonalEdgeStyle;rounded=0;orthogonalLoop=1;jettySize=auto;html=1;exitX=0.5;exitY=1;exitDx=0;exitDy=0;entryX=0;entryY=0.5;entryDx=0;entryDy=0;entryPerimeter=0;" parent="WIyWlLk6GJQsqaUBKTNV-1" source="WYulLBecAvqs4E-bQofC-74" target="WYulLBecAvqs4E-bQofC-71" edge="1">
          <mxGeometry relative="1" as="geometry">
            <Array as="points">
              <mxPoint x="3610" y="1509" />
              <mxPoint x="3490" y="1509" />
              <mxPoint x="3490" y="1219" />
            </Array>
          </mxGeometry>
        </mxCell>
        <mxCell id="WYulLBecAvqs4E-bQofC-83" style="edgeStyle=orthogonalEdgeStyle;rounded=0;orthogonalLoop=1;jettySize=auto;html=1;entryX=0;entryY=0.5;entryDx=0;entryDy=0;" parent="WIyWlLk6GJQsqaUBKTNV-1" source="WYulLBecAvqs4E-bQofC-79" target="WYulLBecAvqs4E-bQofC-22" edge="1">
          <mxGeometry relative="1" as="geometry">
            <Array as="points">
              <mxPoint x="2670" y="1545" />
              <mxPoint x="2670" y="585" />
            </Array>
          </mxGeometry>
        </mxCell>
        <mxCell id="WYulLBecAvqs4E-bQofC-79" value="" style="strokeWidth=2;html=1;shape=mxgraph.flowchart.start_2;whiteSpace=wrap;" parent="WIyWlLk6GJQsqaUBKTNV-1" vertex="1">
          <mxGeometry x="2835" y="1530" width="30" height="30" as="geometry" />
        </mxCell>
        <mxCell id="WYulLBecAvqs4E-bQofC-80" style="edgeStyle=orthogonalEdgeStyle;rounded=0;orthogonalLoop=1;jettySize=auto;html=1;entryX=1;entryY=0.5;entryDx=0;entryDy=0;entryPerimeter=0;" parent="WIyWlLk6GJQsqaUBKTNV-1" source="WYulLBecAvqs4E-bQofC-24" target="WYulLBecAvqs4E-bQofC-79" edge="1">
          <mxGeometry relative="1" as="geometry">
            <Array as="points">
              <mxPoint x="2960" y="1110" />
              <mxPoint x="2960" y="1545" />
            </Array>
          </mxGeometry>
        </mxCell>
        <mxCell id="WYulLBecAvqs4E-bQofC-123" value="False" style="edgeLabel;html=1;align=center;verticalAlign=middle;resizable=0;points=[];" parent="WYulLBecAvqs4E-bQofC-80" vertex="1" connectable="0">
          <mxGeometry x="-0.6334" y="-1" relative="1" as="geometry">
            <mxPoint as="offset" />
          </mxGeometry>
        </mxCell>
        <mxCell id="WYulLBecAvqs4E-bQofC-81" style="edgeStyle=orthogonalEdgeStyle;rounded=0;orthogonalLoop=1;jettySize=auto;html=1;entryX=1;entryY=0.5;entryDx=0;entryDy=0;entryPerimeter=0;" parent="WIyWlLk6GJQsqaUBKTNV-1" source="WYulLBecAvqs4E-bQofC-42" target="WYulLBecAvqs4E-bQofC-79" edge="1">
          <mxGeometry relative="1" as="geometry">
            <Array as="points">
              <mxPoint x="3240" y="1110" />
              <mxPoint x="3240" y="1545" />
            </Array>
          </mxGeometry>
        </mxCell>
        <mxCell id="WYulLBecAvqs4E-bQofC-124" value="False" style="edgeLabel;html=1;align=center;verticalAlign=middle;resizable=0;points=[];" parent="WYulLBecAvqs4E-bQofC-81" vertex="1" connectable="0">
          <mxGeometry x="-0.7479" y="-3" relative="1" as="geometry">
            <mxPoint as="offset" />
          </mxGeometry>
        </mxCell>
        <mxCell id="WYulLBecAvqs4E-bQofC-82" style="edgeStyle=orthogonalEdgeStyle;rounded=0;orthogonalLoop=1;jettySize=auto;html=1;entryX=1;entryY=0.5;entryDx=0;entryDy=0;entryPerimeter=0;" parent="WIyWlLk6GJQsqaUBKTNV-1" source="WYulLBecAvqs4E-bQofC-71" target="WYulLBecAvqs4E-bQofC-79" edge="1">
          <mxGeometry relative="1" as="geometry">
            <Array as="points">
              <mxPoint x="3730" y="1219" />
              <mxPoint x="3730" y="1545" />
            </Array>
          </mxGeometry>
        </mxCell>
        <mxCell id="WYulLBecAvqs4E-bQofC-127" value="False" style="edgeLabel;html=1;align=center;verticalAlign=middle;resizable=0;points=[];" parent="WYulLBecAvqs4E-bQofC-82" vertex="1" connectable="0">
          <mxGeometry x="-0.9666" y="1" relative="1" as="geometry">
            <mxPoint as="offset" />
          </mxGeometry>
        </mxCell>
        <mxCell id="WYulLBecAvqs4E-bQofC-84" value="End" style="strokeWidth=2;html=1;shape=mxgraph.flowchart.terminator;whiteSpace=wrap;" parent="WIyWlLk6GJQsqaUBKTNV-1" vertex="1">
          <mxGeometry x="3020" y="555" width="100" height="60" as="geometry" />
        </mxCell>
        <mxCell id="WYulLBecAvqs4E-bQofC-86" value="add_random_building" style="shape=process;whiteSpace=wrap;html=1;backgroundOutline=1;" parent="WIyWlLk6GJQsqaUBKTNV-1" vertex="1">
          <mxGeometry x="870" y="1720" width="180" height="80" as="geometry" />
        </mxCell>
        <mxCell id="WYulLBecAvqs4E-bQofC-89" value="" style="edgeStyle=orthogonalEdgeStyle;rounded=0;orthogonalLoop=1;jettySize=auto;html=1;" parent="WIyWlLk6GJQsqaUBKTNV-1" source="WYulLBecAvqs4E-bQofC-87" target="WYulLBecAvqs4E-bQofC-88" edge="1">
          <mxGeometry relative="1" as="geometry" />
        </mxCell>
        <mxCell id="WYulLBecAvqs4E-bQofC-87" value="add_random_building&lt;div&gt;(grid, building_density = 0.2)&lt;/div&gt;" style="shape=process;whiteSpace=wrap;html=1;backgroundOutline=1;" parent="WIyWlLk6GJQsqaUBKTNV-1" vertex="1">
          <mxGeometry x="1080" y="1830" width="180" height="80" as="geometry" />
        </mxCell>
        <mxCell id="WYulLBecAvqs4E-bQofC-91" value="" style="edgeStyle=orthogonalEdgeStyle;rounded=0;orthogonalLoop=1;jettySize=auto;html=1;" parent="WIyWlLk6GJQsqaUBKTNV-1" source="WYulLBecAvqs4E-bQofC-88" target="WYulLBecAvqs4E-bQofC-90" edge="1">
          <mxGeometry relative="1" as="geometry" />
        </mxCell>
        <mxCell id="WYulLBecAvqs4E-bQofC-88" value="row = the number of member in list grid" style="rounded=1;whiteSpace=wrap;html=1;absoluteArcSize=1;arcSize=14;strokeWidth=2;" parent="WIyWlLk6GJQsqaUBKTNV-1" vertex="1">
          <mxGeometry x="1085" y="1950" width="170" height="85" as="geometry" />
        </mxCell>
        <mxCell id="WYulLBecAvqs4E-bQofC-93" value="" style="edgeStyle=orthogonalEdgeStyle;rounded=0;orthogonalLoop=1;jettySize=auto;html=1;" parent="WIyWlLk6GJQsqaUBKTNV-1" source="WYulLBecAvqs4E-bQofC-90" target="WYulLBecAvqs4E-bQofC-92" edge="1">
          <mxGeometry relative="1" as="geometry" />
        </mxCell>
        <mxCell id="WYulLBecAvqs4E-bQofC-90" value="col = the number of member in list grid[0]" style="rounded=1;whiteSpace=wrap;html=1;absoluteArcSize=1;arcSize=14;strokeWidth=2;" parent="WIyWlLk6GJQsqaUBKTNV-1" vertex="1">
          <mxGeometry x="1085" y="2070" width="170" height="85" as="geometry" />
        </mxCell>
        <mxCell id="WYulLBecAvqs4E-bQofC-95" value="" style="edgeStyle=orthogonalEdgeStyle;rounded=0;orthogonalLoop=1;jettySize=auto;html=1;" parent="WIyWlLk6GJQsqaUBKTNV-1" source="WYulLBecAvqs4E-bQofC-92" target="WYulLBecAvqs4E-bQofC-94" edge="1">
          <mxGeometry relative="1" as="geometry" />
        </mxCell>
        <mxCell id="WYulLBecAvqs4E-bQofC-92" value="j = 0" style="rounded=1;whiteSpace=wrap;html=1;absoluteArcSize=1;arcSize=14;strokeWidth=2;" parent="WIyWlLk6GJQsqaUBKTNV-1" vertex="1">
          <mxGeometry x="1112.5" y="2190" width="115" height="50" as="geometry" />
        </mxCell>
        <mxCell id="WYulLBecAvqs4E-bQofC-97" value="" style="edgeStyle=orthogonalEdgeStyle;rounded=0;orthogonalLoop=1;jettySize=auto;html=1;" parent="WIyWlLk6GJQsqaUBKTNV-1" source="WYulLBecAvqs4E-bQofC-94" target="WYulLBecAvqs4E-bQofC-96" edge="1">
          <mxGeometry relative="1" as="geometry" />
        </mxCell>
        <mxCell id="WYulLBecAvqs4E-bQofC-94" value="building_value =&amp;nbsp;int((rows - 2) * (cols - 2) * building_density)" style="rounded=1;whiteSpace=wrap;html=1;absoluteArcSize=1;arcSize=14;strokeWidth=2;" parent="WIyWlLk6GJQsqaUBKTNV-1" vertex="1">
          <mxGeometry x="1085" y="2270" width="170" height="85" as="geometry" />
        </mxCell>
        <mxCell id="WYulLBecAvqs4E-bQofC-100" value="" style="edgeStyle=orthogonalEdgeStyle;rounded=0;orthogonalLoop=1;jettySize=auto;html=1;" parent="WIyWlLk6GJQsqaUBKTNV-1" source="WYulLBecAvqs4E-bQofC-96" target="WYulLBecAvqs4E-bQofC-98" edge="1">
          <mxGeometry relative="1" as="geometry" />
        </mxCell>
        <mxCell id="WYulLBecAvqs4E-bQofC-128" value="True" style="edgeLabel;html=1;align=center;verticalAlign=middle;resizable=0;points=[];" parent="WYulLBecAvqs4E-bQofC-100" vertex="1" connectable="0">
          <mxGeometry x="-0.21" relative="1" as="geometry">
            <mxPoint as="offset" />
          </mxGeometry>
        </mxCell>
        <mxCell id="WYulLBecAvqs4E-bQofC-132" value="" style="edgeStyle=orthogonalEdgeStyle;rounded=0;orthogonalLoop=1;jettySize=auto;html=1;" parent="WIyWlLk6GJQsqaUBKTNV-1" source="WYulLBecAvqs4E-bQofC-96" target="WYulLBecAvqs4E-bQofC-131" edge="1">
          <mxGeometry relative="1" as="geometry" />
        </mxCell>
        <mxCell id="WYulLBecAvqs4E-bQofC-133" value="False" style="edgeLabel;html=1;align=center;verticalAlign=middle;resizable=0;points=[];" parent="WYulLBecAvqs4E-bQofC-132" vertex="1" connectable="0">
          <mxGeometry x="-0.0672" y="-1" relative="1" as="geometry">
            <mxPoint as="offset" />
          </mxGeometry>
        </mxCell>
        <mxCell id="WYulLBecAvqs4E-bQofC-96" value="while j &amp;lt; building_value" style="strokeWidth=2;html=1;shape=mxgraph.flowchart.decision;whiteSpace=wrap;" parent="WIyWlLk6GJQsqaUBKTNV-1" vertex="1">
          <mxGeometry x="1080" y="2390" width="180" height="100" as="geometry" />
        </mxCell>
        <mxCell id="WYulLBecAvqs4E-bQofC-101" value="" style="edgeStyle=orthogonalEdgeStyle;rounded=0;orthogonalLoop=1;jettySize=auto;html=1;" parent="WIyWlLk6GJQsqaUBKTNV-1" source="WYulLBecAvqs4E-bQofC-98" target="WYulLBecAvqs4E-bQofC-99" edge="1">
          <mxGeometry relative="1" as="geometry" />
        </mxCell>
        <mxCell id="WYulLBecAvqs4E-bQofC-98" value="x = random number between 1 and rows - 2" style="rounded=1;whiteSpace=wrap;html=1;absoluteArcSize=1;arcSize=14;strokeWidth=2;" parent="WIyWlLk6GJQsqaUBKTNV-1" vertex="1">
          <mxGeometry x="1082.5" y="2530" width="175" height="70" as="geometry" />
        </mxCell>
        <mxCell id="WYulLBecAvqs4E-bQofC-103" value="" style="edgeStyle=orthogonalEdgeStyle;rounded=0;orthogonalLoop=1;jettySize=auto;html=1;" parent="WIyWlLk6GJQsqaUBKTNV-1" source="WYulLBecAvqs4E-bQofC-99" target="WYulLBecAvqs4E-bQofC-102" edge="1">
          <mxGeometry relative="1" as="geometry" />
        </mxCell>
        <mxCell id="WYulLBecAvqs4E-bQofC-99" value="y = random number between 1 and cols - 2" style="rounded=1;whiteSpace=wrap;html=1;absoluteArcSize=1;arcSize=14;strokeWidth=2;" parent="WIyWlLk6GJQsqaUBKTNV-1" vertex="1">
          <mxGeometry x="1082.5" y="2630" width="175" height="70" as="geometry" />
        </mxCell>
        <mxCell id="WYulLBecAvqs4E-bQofC-105" value="" style="edgeStyle=orthogonalEdgeStyle;rounded=0;orthogonalLoop=1;jettySize=auto;html=1;" parent="WIyWlLk6GJQsqaUBKTNV-1" source="WYulLBecAvqs4E-bQofC-102" target="WYulLBecAvqs4E-bQofC-104" edge="1">
          <mxGeometry relative="1" as="geometry" />
        </mxCell>
        <mxCell id="WYulLBecAvqs4E-bQofC-129" value="True" style="edgeLabel;html=1;align=center;verticalAlign=middle;resizable=0;points=[];" parent="WYulLBecAvqs4E-bQofC-105" vertex="1" connectable="0">
          <mxGeometry x="-0.1733" y="-2" relative="1" as="geometry">
            <mxPoint as="offset" />
          </mxGeometry>
        </mxCell>
        <mxCell id="WYulLBecAvqs4E-bQofC-108" style="edgeStyle=orthogonalEdgeStyle;rounded=0;orthogonalLoop=1;jettySize=auto;html=1;entryX=0.5;entryY=0;entryDx=0;entryDy=0;" parent="WIyWlLk6GJQsqaUBKTNV-1" source="WYulLBecAvqs4E-bQofC-102" target="WYulLBecAvqs4E-bQofC-106" edge="1">
          <mxGeometry relative="1" as="geometry" />
        </mxCell>
        <mxCell id="WYulLBecAvqs4E-bQofC-130" value="False" style="edgeLabel;html=1;align=center;verticalAlign=middle;resizable=0;points=[];" parent="WYulLBecAvqs4E-bQofC-108" vertex="1" connectable="0">
          <mxGeometry x="-0.128" y="-1" relative="1" as="geometry">
            <mxPoint as="offset" />
          </mxGeometry>
        </mxCell>
        <mxCell id="WYulLBecAvqs4E-bQofC-102" value="can_place_building(grid, x, y) = True" style="strokeWidth=2;html=1;shape=mxgraph.flowchart.decision;whiteSpace=wrap;" parent="WIyWlLk6GJQsqaUBKTNV-1" vertex="1">
          <mxGeometry x="1055" y="2720" width="230" height="100" as="geometry" />
        </mxCell>
        <mxCell id="WYulLBecAvqs4E-bQofC-107" value="" style="edgeStyle=orthogonalEdgeStyle;rounded=0;orthogonalLoop=1;jettySize=auto;html=1;" parent="WIyWlLk6GJQsqaUBKTNV-1" source="WYulLBecAvqs4E-bQofC-104" target="WYulLBecAvqs4E-bQofC-106" edge="1">
          <mxGeometry relative="1" as="geometry">
            <Array as="points">
              <mxPoint x="1448" y="2880" />
            </Array>
          </mxGeometry>
        </mxCell>
        <mxCell id="WYulLBecAvqs4E-bQofC-104" value="place_building(grid, x, y)" style="rounded=1;whiteSpace=wrap;html=1;absoluteArcSize=1;arcSize=14;strokeWidth=2;" parent="WIyWlLk6GJQsqaUBKTNV-1" vertex="1">
          <mxGeometry x="1360" y="2735" width="175" height="70" as="geometry" />
        </mxCell>
        <mxCell id="WYulLBecAvqs4E-bQofC-106" value="" style="ellipse;whiteSpace=wrap;html=1;rounded=1;arcSize=14;strokeWidth=2;" parent="WIyWlLk6GJQsqaUBKTNV-1" vertex="1">
          <mxGeometry x="1158.75" y="2870" width="22.5" height="20" as="geometry" />
        </mxCell>
        <mxCell id="WYulLBecAvqs4E-bQofC-109" style="edgeStyle=orthogonalEdgeStyle;rounded=0;orthogonalLoop=1;jettySize=auto;html=1;entryX=0;entryY=0.5;entryDx=0;entryDy=0;entryPerimeter=0;" parent="WIyWlLk6GJQsqaUBKTNV-1" source="WYulLBecAvqs4E-bQofC-106" target="WYulLBecAvqs4E-bQofC-96" edge="1">
          <mxGeometry relative="1" as="geometry">
            <Array as="points">
              <mxPoint x="1010" y="2880" />
              <mxPoint x="1010" y="2440" />
            </Array>
          </mxGeometry>
        </mxCell>
        <mxCell id="WYulLBecAvqs4E-bQofC-115" style="edgeStyle=orthogonalEdgeStyle;rounded=0;orthogonalLoop=1;jettySize=auto;html=1;entryX=1;entryY=0.5;entryDx=0;entryDy=0;entryPerimeter=0;" parent="WIyWlLk6GJQsqaUBKTNV-1" source="WYulLBecAvqs4E-bQofC-51" target="WYulLBecAvqs4E-bQofC-79" edge="1">
          <mxGeometry relative="1" as="geometry">
            <Array as="points">
              <mxPoint x="3730" y="885" />
              <mxPoint x="3730" y="1545" />
            </Array>
          </mxGeometry>
        </mxCell>
        <mxCell id="WYulLBecAvqs4E-bQofC-116" value="False" style="edgeLabel;html=1;align=center;verticalAlign=middle;resizable=0;points=[];" parent="WYulLBecAvqs4E-bQofC-115" vertex="1" connectable="0">
          <mxGeometry x="-0.8726" y="-1" relative="1" as="geometry">
            <mxPoint as="offset" />
          </mxGeometry>
        </mxCell>
        <mxCell id="WYulLBecAvqs4E-bQofC-131" value="End" style="strokeWidth=2;html=1;shape=mxgraph.flowchart.terminator;whiteSpace=wrap;" parent="WIyWlLk6GJQsqaUBKTNV-1" vertex="1">
          <mxGeometry x="1340" y="2410" width="100" height="60" as="geometry" />
        </mxCell>
        <mxCell id="kDww0dAs7z7YPovADXAU-0" value="can_place_building" style="shape=process;whiteSpace=wrap;html=1;backgroundOutline=1;" parent="WIyWlLk6GJQsqaUBKTNV-1" vertex="1">
          <mxGeometry x="1709.4" y="1720" width="180" height="80" as="geometry" />
        </mxCell>
        <mxCell id="kDww0dAs7z7YPovADXAU-1" value="" style="edgeStyle=orthogonalEdgeStyle;rounded=0;orthogonalLoop=1;jettySize=auto;html=1;" parent="WIyWlLk6GJQsqaUBKTNV-1" source="kDww0dAs7z7YPovADXAU-2" target="kDww0dAs7z7YPovADXAU-4" edge="1">
          <mxGeometry relative="1" as="geometry" />
        </mxCell>
        <mxCell id="kDww0dAs7z7YPovADXAU-2" value="can_place_building(grid, x, y)" style="shape=process;whiteSpace=wrap;html=1;backgroundOutline=1;" parent="WIyWlLk6GJQsqaUBKTNV-1" vertex="1">
          <mxGeometry x="1917.18" y="1830" width="180" height="80" as="geometry" />
        </mxCell>
        <mxCell id="kDww0dAs7z7YPovADXAU-3" value="" style="edgeStyle=orthogonalEdgeStyle;rounded=0;orthogonalLoop=1;jettySize=auto;html=1;" parent="WIyWlLk6GJQsqaUBKTNV-1" source="kDww0dAs7z7YPovADXAU-4" target="kDww0dAs7z7YPovADXAU-6" edge="1">
          <mxGeometry relative="1" as="geometry" />
        </mxCell>
        <mxCell id="kDww0dAs7z7YPovADXAU-4" value="building_sizes = [(2, 3), (2, 2), (1, 3)]" style="rounded=1;whiteSpace=wrap;html=1;absoluteArcSize=1;arcSize=14;strokeWidth=2;" parent="WIyWlLk6GJQsqaUBKTNV-1" vertex="1">
          <mxGeometry x="1922.18" y="1950" width="170" height="85" as="geometry" />
        </mxCell>
        <mxCell id="kDww0dAs7z7YPovADXAU-5" value="" style="edgeStyle=orthogonalEdgeStyle;rounded=0;orthogonalLoop=1;jettySize=auto;html=1;" parent="WIyWlLk6GJQsqaUBKTNV-1" edge="1">
          <mxGeometry relative="1" as="geometry">
            <mxPoint x="2007.31" y="2252.5" as="sourcePoint" />
            <mxPoint x="2007.271538461538" y="2287.5" as="targetPoint" />
          </mxGeometry>
        </mxCell>
        <mxCell id="kDww0dAs7z7YPovADXAU-95" value="" style="edgeStyle=orthogonalEdgeStyle;rounded=0;orthogonalLoop=1;jettySize=auto;html=1;" parent="WIyWlLk6GJQsqaUBKTNV-1" source="kDww0dAs7z7YPovADXAU-6" target="kDww0dAs7z7YPovADXAU-94" edge="1">
          <mxGeometry relative="1" as="geometry" />
        </mxCell>
        <mxCell id="kDww0dAs7z7YPovADXAU-6" value="size = random choice from building_size" style="rounded=1;whiteSpace=wrap;html=1;absoluteArcSize=1;arcSize=14;strokeWidth=2;" parent="WIyWlLk6GJQsqaUBKTNV-1" vertex="1">
          <mxGeometry x="1922.18" y="2070" width="170" height="85" as="geometry" />
        </mxCell>
        <mxCell id="kDww0dAs7z7YPovADXAU-33" value="" style="edgeStyle=orthogonalEdgeStyle;rounded=0;orthogonalLoop=1;jettySize=auto;html=1;" parent="WIyWlLk6GJQsqaUBKTNV-1" source="kDww0dAs7z7YPovADXAU-15" target="kDww0dAs7z7YPovADXAU-32" edge="1">
          <mxGeometry relative="1" as="geometry" />
        </mxCell>
        <mxCell id="kDww0dAs7z7YPovADXAU-60" value="" style="edgeStyle=orthogonalEdgeStyle;rounded=0;orthogonalLoop=1;jettySize=auto;html=1;" parent="WIyWlLk6GJQsqaUBKTNV-1" source="kDww0dAs7z7YPovADXAU-15" target="kDww0dAs7z7YPovADXAU-59" edge="1">
          <mxGeometry relative="1" as="geometry" />
        </mxCell>
        <mxCell id="kDww0dAs7z7YPovADXAU-15" value="x + height - 1 &amp;lt; (number of&amp;nbsp;&lt;div&gt;member in grid) - 1&amp;nbsp;&lt;div&gt;and&amp;nbsp;&lt;div&gt;y + width - 1 &amp;lt; (number of&amp;nbsp;&lt;/div&gt;&lt;div&gt;member in grid)&amp;nbsp;- 1&lt;/div&gt;&lt;/div&gt;&lt;/div&gt;" style="strokeWidth=2;html=1;shape=mxgraph.flowchart.decision;whiteSpace=wrap;" parent="WIyWlLk6GJQsqaUBKTNV-1" vertex="1">
          <mxGeometry x="1877.21" y="2287.5" width="260.6" height="150" as="geometry" />
        </mxCell>
        <mxCell id="kDww0dAs7z7YPovADXAU-39" value="" style="edgeStyle=orthogonalEdgeStyle;rounded=0;orthogonalLoop=1;jettySize=auto;html=1;" parent="WIyWlLk6GJQsqaUBKTNV-1" source="kDww0dAs7z7YPovADXAU-30" target="kDww0dAs7z7YPovADXAU-38" edge="1">
          <mxGeometry relative="1" as="geometry" />
        </mxCell>
        <mxCell id="kDww0dAs7z7YPovADXAU-58" value="" style="edgeStyle=orthogonalEdgeStyle;rounded=0;orthogonalLoop=1;jettySize=auto;html=1;" parent="WIyWlLk6GJQsqaUBKTNV-1" source="kDww0dAs7z7YPovADXAU-30" target="kDww0dAs7z7YPovADXAU-57" edge="1">
          <mxGeometry relative="1" as="geometry" />
        </mxCell>
        <mxCell id="kDww0dAs7z7YPovADXAU-30" value="while i &amp;lt; height" style="strokeWidth=2;html=1;shape=mxgraph.flowchart.decision;whiteSpace=wrap;" parent="WIyWlLk6GJQsqaUBKTNV-1" vertex="1">
          <mxGeometry x="1917.1799999999998" y="2557.5" width="180" height="100" as="geometry" />
        </mxCell>
        <mxCell id="kDww0dAs7z7YPovADXAU-34" value="" style="edgeStyle=orthogonalEdgeStyle;rounded=0;orthogonalLoop=1;jettySize=auto;html=1;" parent="WIyWlLk6GJQsqaUBKTNV-1" source="kDww0dAs7z7YPovADXAU-32" target="kDww0dAs7z7YPovADXAU-30" edge="1">
          <mxGeometry relative="1" as="geometry" />
        </mxCell>
        <mxCell id="kDww0dAs7z7YPovADXAU-32" value="i = 0" style="rounded=1;whiteSpace=wrap;html=1;absoluteArcSize=1;arcSize=14;strokeWidth=2;" parent="WIyWlLk6GJQsqaUBKTNV-1" vertex="1">
          <mxGeometry x="1947.2099999999998" y="2467.5" width="120.63" height="45" as="geometry" />
        </mxCell>
        <mxCell id="kDww0dAs7z7YPovADXAU-44" value="" style="edgeStyle=orthogonalEdgeStyle;rounded=0;orthogonalLoop=1;jettySize=auto;html=1;" parent="WIyWlLk6GJQsqaUBKTNV-1" source="kDww0dAs7z7YPovADXAU-36" target="kDww0dAs7z7YPovADXAU-43" edge="1">
          <mxGeometry relative="1" as="geometry" />
        </mxCell>
        <mxCell id="kDww0dAs7z7YPovADXAU-36" value="while j &amp;lt; width" style="strokeWidth=2;html=1;shape=mxgraph.flowchart.decision;whiteSpace=wrap;" parent="WIyWlLk6GJQsqaUBKTNV-1" vertex="1">
          <mxGeometry x="1917.1799999999998" y="2777.5" width="180" height="100" as="geometry" />
        </mxCell>
        <mxCell id="kDww0dAs7z7YPovADXAU-37" value="" style="edgeStyle=orthogonalEdgeStyle;rounded=0;orthogonalLoop=1;jettySize=auto;html=1;" parent="WIyWlLk6GJQsqaUBKTNV-1" source="kDww0dAs7z7YPovADXAU-38" target="kDww0dAs7z7YPovADXAU-36" edge="1">
          <mxGeometry relative="1" as="geometry" />
        </mxCell>
        <mxCell id="kDww0dAs7z7YPovADXAU-38" value="j = 0" style="rounded=1;whiteSpace=wrap;html=1;absoluteArcSize=1;arcSize=14;strokeWidth=2;" parent="WIyWlLk6GJQsqaUBKTNV-1" vertex="1">
          <mxGeometry x="1946.8799999999999" y="2687.5" width="120.63" height="45" as="geometry" />
        </mxCell>
        <mxCell id="kDww0dAs7z7YPovADXAU-46" value="" style="edgeStyle=orthogonalEdgeStyle;rounded=0;orthogonalLoop=1;jettySize=auto;html=1;" parent="WIyWlLk6GJQsqaUBKTNV-1" source="kDww0dAs7z7YPovADXAU-43" target="kDww0dAs7z7YPovADXAU-45" edge="1">
          <mxGeometry relative="1" as="geometry" />
        </mxCell>
        <mxCell id="kDww0dAs7z7YPovADXAU-48" value="" style="edgeStyle=orthogonalEdgeStyle;rounded=0;orthogonalLoop=1;jettySize=auto;html=1;" parent="WIyWlLk6GJQsqaUBKTNV-1" source="kDww0dAs7z7YPovADXAU-43" target="kDww0dAs7z7YPovADXAU-47" edge="1">
          <mxGeometry relative="1" as="geometry" />
        </mxCell>
        <mxCell id="kDww0dAs7z7YPovADXAU-43" value="grid[x + i][y + j] != 0" style="strokeWidth=2;html=1;shape=mxgraph.flowchart.decision;whiteSpace=wrap;" parent="WIyWlLk6GJQsqaUBKTNV-1" vertex="1">
          <mxGeometry x="1917.5199999999998" y="2907.5" width="180" height="100" as="geometry" />
        </mxCell>
        <mxCell id="kDww0dAs7z7YPovADXAU-49" style="edgeStyle=orthogonalEdgeStyle;rounded=0;orthogonalLoop=1;jettySize=auto;html=1;entryX=0;entryY=0.5;entryDx=0;entryDy=0;" parent="WIyWlLk6GJQsqaUBKTNV-1" source="kDww0dAs7z7YPovADXAU-45" target="kDww0dAs7z7YPovADXAU-47" edge="1">
          <mxGeometry relative="1" as="geometry">
            <Array as="points">
              <mxPoint x="1816.81" y="3067.5" />
            </Array>
          </mxGeometry>
        </mxCell>
        <mxCell id="kDww0dAs7z7YPovADXAU-45" value="return False" style="rounded=1;whiteSpace=wrap;html=1;absoluteArcSize=1;arcSize=14;strokeWidth=2;" parent="WIyWlLk6GJQsqaUBKTNV-1" vertex="1">
          <mxGeometry x="1755.9900000000002" y="2931.25" width="121.22" height="52.5" as="geometry" />
        </mxCell>
        <mxCell id="kDww0dAs7z7YPovADXAU-47" value="" style="ellipse;whiteSpace=wrap;html=1;strokeWidth=2;" parent="WIyWlLk6GJQsqaUBKTNV-1" vertex="1">
          <mxGeometry x="1997.18" y="3057.5" width="20" height="20" as="geometry" />
        </mxCell>
        <mxCell id="kDww0dAs7z7YPovADXAU-51" style="edgeStyle=orthogonalEdgeStyle;rounded=0;orthogonalLoop=1;jettySize=auto;html=1;entryX=1;entryY=0.5;entryDx=0;entryDy=0;entryPerimeter=0;" parent="WIyWlLk6GJQsqaUBKTNV-1" source="kDww0dAs7z7YPovADXAU-52" target="kDww0dAs7z7YPovADXAU-36" edge="1">
          <mxGeometry relative="1" as="geometry">
            <Array as="points">
              <mxPoint x="2178.81" y="2827.5" />
            </Array>
          </mxGeometry>
        </mxCell>
        <mxCell id="kDww0dAs7z7YPovADXAU-53" value="" style="edgeStyle=orthogonalEdgeStyle;rounded=0;orthogonalLoop=1;jettySize=auto;html=1;entryX=0.5;entryY=1;entryDx=0;entryDy=0;" parent="WIyWlLk6GJQsqaUBKTNV-1" source="kDww0dAs7z7YPovADXAU-47" target="kDww0dAs7z7YPovADXAU-52" edge="1">
          <mxGeometry relative="1" as="geometry">
            <mxPoint x="2016.81" y="3067.5" as="sourcePoint" />
            <mxPoint x="2096.81" y="2827.5" as="targetPoint" />
            <Array as="points">
              <mxPoint x="2177.81" y="3067.5" />
              <mxPoint x="2177.81" y="2997.5" />
              <mxPoint x="2178.81" y="2997.5" />
            </Array>
          </mxGeometry>
        </mxCell>
        <mxCell id="kDww0dAs7z7YPovADXAU-52" value="j = j + 1" style="rounded=1;whiteSpace=wrap;html=1;absoluteArcSize=1;arcSize=14;strokeWidth=2;" parent="WIyWlLk6GJQsqaUBKTNV-1" vertex="1">
          <mxGeometry x="2117.8100000000004" y="2931.25" width="121.22" height="52.5" as="geometry" />
        </mxCell>
        <mxCell id="kDww0dAs7z7YPovADXAU-54" style="edgeStyle=orthogonalEdgeStyle;rounded=0;orthogonalLoop=1;jettySize=auto;html=1;entryX=0;entryY=0.5;entryDx=0;entryDy=0;entryPerimeter=0;" parent="WIyWlLk6GJQsqaUBKTNV-1" source="kDww0dAs7z7YPovADXAU-55" target="kDww0dAs7z7YPovADXAU-30" edge="1">
          <mxGeometry relative="1" as="geometry">
            <Array as="points">
              <mxPoint x="1867.81" y="2607.5" />
            </Array>
          </mxGeometry>
        </mxCell>
        <mxCell id="kDww0dAs7z7YPovADXAU-56" value="" style="edgeStyle=orthogonalEdgeStyle;rounded=0;orthogonalLoop=1;jettySize=auto;html=1;entryX=0;entryY=0.5;entryDx=0;entryDy=0;entryPerimeter=0;" parent="WIyWlLk6GJQsqaUBKTNV-1" source="kDww0dAs7z7YPovADXAU-36" target="kDww0dAs7z7YPovADXAU-55" edge="1">
          <mxGeometry relative="1" as="geometry">
            <mxPoint x="1916.81" y="2827.5" as="sourcePoint" />
            <mxPoint x="1916.81" y="2607.5" as="targetPoint" />
            <Array as="points">
              <mxPoint x="1867.81" y="2827.5" />
            </Array>
          </mxGeometry>
        </mxCell>
        <mxCell id="kDww0dAs7z7YPovADXAU-55" value="i = i + 1" style="rounded=1;whiteSpace=wrap;html=1;absoluteArcSize=1;arcSize=14;strokeWidth=2;" parent="WIyWlLk6GJQsqaUBKTNV-1" vertex="1">
          <mxGeometry x="1806.6200000000003" y="2697.5" width="121.22" height="52.5" as="geometry" />
        </mxCell>
        <mxCell id="kDww0dAs7z7YPovADXAU-57" value="return True" style="rounded=1;whiteSpace=wrap;html=1;absoluteArcSize=1;arcSize=14;strokeWidth=2;" parent="WIyWlLk6GJQsqaUBKTNV-1" vertex="1">
          <mxGeometry x="2157.8100000000004" y="2581.25" width="121.22" height="52.5" as="geometry" />
        </mxCell>
        <mxCell id="kDww0dAs7z7YPovADXAU-59" value="return False" style="rounded=1;whiteSpace=wrap;html=1;absoluteArcSize=1;arcSize=14;strokeWidth=2;" parent="WIyWlLk6GJQsqaUBKTNV-1" vertex="1">
          <mxGeometry x="2191.5900000000006" y="2336.25" width="121.22" height="52.5" as="geometry" />
        </mxCell>
        <mxCell id="kDww0dAs7z7YPovADXAU-61" value="place_building" style="shape=process;whiteSpace=wrap;html=1;backgroundOutline=1;" parent="WIyWlLk6GJQsqaUBKTNV-1" vertex="1">
          <mxGeometry x="2481" y="1720" width="180" height="80" as="geometry" />
        </mxCell>
        <mxCell id="kDww0dAs7z7YPovADXAU-94" value="height, width = size" style="rounded=1;whiteSpace=wrap;html=1;absoluteArcSize=1;arcSize=14;strokeWidth=2;" parent="WIyWlLk6GJQsqaUBKTNV-1" vertex="1">
          <mxGeometry x="1933.27" y="2197" width="147.82" height="60" as="geometry" />
        </mxCell>
        <mxCell id="kDww0dAs7z7YPovADXAU-96" value="" style="edgeStyle=orthogonalEdgeStyle;rounded=0;orthogonalLoop=1;jettySize=auto;html=1;" parent="WIyWlLk6GJQsqaUBKTNV-1" source="kDww0dAs7z7YPovADXAU-97" target="kDww0dAs7z7YPovADXAU-99" edge="1">
          <mxGeometry relative="1" as="geometry" />
        </mxCell>
        <mxCell id="kDww0dAs7z7YPovADXAU-97" value="place_building(grid, x, y)" style="shape=process;whiteSpace=wrap;html=1;backgroundOutline=1;" parent="WIyWlLk6GJQsqaUBKTNV-1" vertex="1">
          <mxGeometry x="2701.19" y="1830" width="180" height="80" as="geometry" />
        </mxCell>
        <mxCell id="kDww0dAs7z7YPovADXAU-98" value="" style="edgeStyle=orthogonalEdgeStyle;rounded=0;orthogonalLoop=1;jettySize=auto;html=1;" parent="WIyWlLk6GJQsqaUBKTNV-1" source="kDww0dAs7z7YPovADXAU-99" target="kDww0dAs7z7YPovADXAU-102" edge="1">
          <mxGeometry relative="1" as="geometry" />
        </mxCell>
        <mxCell id="kDww0dAs7z7YPovADXAU-99" value="building_sizes = [(2, 3), (2, 2), (1, 3)]" style="rounded=1;whiteSpace=wrap;html=1;absoluteArcSize=1;arcSize=14;strokeWidth=2;" parent="WIyWlLk6GJQsqaUBKTNV-1" vertex="1">
          <mxGeometry x="2706.19" y="1950" width="170" height="85" as="geometry" />
        </mxCell>
        <mxCell id="kDww0dAs7z7YPovADXAU-101" value="" style="edgeStyle=orthogonalEdgeStyle;rounded=0;orthogonalLoop=1;jettySize=auto;html=1;" parent="WIyWlLk6GJQsqaUBKTNV-1" source="kDww0dAs7z7YPovADXAU-102" target="kDww0dAs7z7YPovADXAU-129" edge="1">
          <mxGeometry relative="1" as="geometry" />
        </mxCell>
        <mxCell id="kDww0dAs7z7YPovADXAU-102" value="size = random choice from building_size" style="rounded=1;whiteSpace=wrap;html=1;absoluteArcSize=1;arcSize=14;strokeWidth=2;" parent="WIyWlLk6GJQsqaUBKTNV-1" vertex="1">
          <mxGeometry x="2706.19" y="2070" width="170" height="85" as="geometry" />
        </mxCell>
        <mxCell id="kDww0dAs7z7YPovADXAU-106" value="" style="edgeStyle=orthogonalEdgeStyle;rounded=0;orthogonalLoop=1;jettySize=auto;html=1;" parent="WIyWlLk6GJQsqaUBKTNV-1" source="kDww0dAs7z7YPovADXAU-108" target="kDww0dAs7z7YPovADXAU-114" edge="1">
          <mxGeometry relative="1" as="geometry" />
        </mxCell>
        <mxCell id="kDww0dAs7z7YPovADXAU-107" value="" style="edgeStyle=orthogonalEdgeStyle;rounded=0;orthogonalLoop=1;jettySize=auto;html=1;" parent="WIyWlLk6GJQsqaUBKTNV-1" source="kDww0dAs7z7YPovADXAU-108" edge="1">
          <mxGeometry relative="1" as="geometry">
            <mxPoint x="2940.3000000000006" y="2429.08" as="targetPoint" />
          </mxGeometry>
        </mxCell>
        <mxCell id="kDww0dAs7z7YPovADXAU-108" value="while i &amp;lt; height" style="strokeWidth=2;html=1;shape=mxgraph.flowchart.decision;whiteSpace=wrap;" parent="WIyWlLk6GJQsqaUBKTNV-1" vertex="1">
          <mxGeometry x="2699.6699999999996" y="2378.98" width="180" height="100" as="geometry" />
        </mxCell>
        <mxCell id="kDww0dAs7z7YPovADXAU-109" value="" style="edgeStyle=orthogonalEdgeStyle;rounded=0;orthogonalLoop=1;jettySize=auto;html=1;" parent="WIyWlLk6GJQsqaUBKTNV-1" target="kDww0dAs7z7YPovADXAU-108" edge="1">
          <mxGeometry relative="1" as="geometry">
            <mxPoint x="2790.009411764706" y="2255" as="sourcePoint" />
          </mxGeometry>
        </mxCell>
        <mxCell id="kDww0dAs7z7YPovADXAU-130" value="" style="edgeStyle=orthogonalEdgeStyle;rounded=0;orthogonalLoop=1;jettySize=auto;html=1;" parent="WIyWlLk6GJQsqaUBKTNV-1" source="kDww0dAs7z7YPovADXAU-112" target="kDww0dAs7z7YPovADXAU-119" edge="1">
          <mxGeometry relative="1" as="geometry" />
        </mxCell>
        <mxCell id="kDww0dAs7z7YPovADXAU-112" value="while j &amp;lt; width" style="strokeWidth=2;html=1;shape=mxgraph.flowchart.decision;whiteSpace=wrap;" parent="WIyWlLk6GJQsqaUBKTNV-1" vertex="1">
          <mxGeometry x="2699.6699999999996" y="2598.98" width="180" height="100" as="geometry" />
        </mxCell>
        <mxCell id="kDww0dAs7z7YPovADXAU-113" value="" style="edgeStyle=orthogonalEdgeStyle;rounded=0;orthogonalLoop=1;jettySize=auto;html=1;" parent="WIyWlLk6GJQsqaUBKTNV-1" source="kDww0dAs7z7YPovADXAU-114" target="kDww0dAs7z7YPovADXAU-112" edge="1">
          <mxGeometry relative="1" as="geometry" />
        </mxCell>
        <mxCell id="kDww0dAs7z7YPovADXAU-114" value="j = 0" style="rounded=1;whiteSpace=wrap;html=1;absoluteArcSize=1;arcSize=14;strokeWidth=2;" parent="WIyWlLk6GJQsqaUBKTNV-1" vertex="1">
          <mxGeometry x="2729.37" y="2508.98" width="120.63" height="45" as="geometry" />
        </mxCell>
        <mxCell id="kDww0dAs7z7YPovADXAU-131" style="edgeStyle=orthogonalEdgeStyle;rounded=0;orthogonalLoop=1;jettySize=auto;html=1;entryX=0.5;entryY=1;entryDx=0;entryDy=0;" parent="WIyWlLk6GJQsqaUBKTNV-1" source="kDww0dAs7z7YPovADXAU-119" target="kDww0dAs7z7YPovADXAU-123" edge="1">
          <mxGeometry relative="1" as="geometry">
            <Array as="points">
              <mxPoint x="2790" y="2835.98" />
              <mxPoint x="2961" y="2835.98" />
            </Array>
          </mxGeometry>
        </mxCell>
        <mxCell id="kDww0dAs7z7YPovADXAU-119" value="grid[x + i][y + i] = 1" style="rounded=1;whiteSpace=wrap;html=1;absoluteArcSize=1;arcSize=14;strokeWidth=2;" parent="WIyWlLk6GJQsqaUBKTNV-1" vertex="1">
          <mxGeometry x="2723.91" y="2736.48" width="131.52" height="63.25" as="geometry" />
        </mxCell>
        <mxCell id="kDww0dAs7z7YPovADXAU-121" style="edgeStyle=orthogonalEdgeStyle;rounded=0;orthogonalLoop=1;jettySize=auto;html=1;entryX=1;entryY=0.5;entryDx=0;entryDy=0;entryPerimeter=0;" parent="WIyWlLk6GJQsqaUBKTNV-1" source="kDww0dAs7z7YPovADXAU-123" target="kDww0dAs7z7YPovADXAU-112" edge="1">
          <mxGeometry relative="1" as="geometry">
            <Array as="points">
              <mxPoint x="2961.2999999999997" y="2648.98" />
            </Array>
          </mxGeometry>
        </mxCell>
        <mxCell id="kDww0dAs7z7YPovADXAU-123" value="j = j + 1" style="rounded=1;whiteSpace=wrap;html=1;absoluteArcSize=1;arcSize=14;strokeWidth=2;" parent="WIyWlLk6GJQsqaUBKTNV-1" vertex="1">
          <mxGeometry x="2900.000000000001" y="2736.48" width="121.22" height="52.5" as="geometry" />
        </mxCell>
        <mxCell id="kDww0dAs7z7YPovADXAU-124" style="edgeStyle=orthogonalEdgeStyle;rounded=0;orthogonalLoop=1;jettySize=auto;html=1;entryX=0;entryY=0.5;entryDx=0;entryDy=0;entryPerimeter=0;" parent="WIyWlLk6GJQsqaUBKTNV-1" source="kDww0dAs7z7YPovADXAU-126" target="kDww0dAs7z7YPovADXAU-108" edge="1">
          <mxGeometry relative="1" as="geometry">
            <Array as="points">
              <mxPoint x="2650.2999999999997" y="2428.98" />
            </Array>
          </mxGeometry>
        </mxCell>
        <mxCell id="kDww0dAs7z7YPovADXAU-125" value="" style="edgeStyle=orthogonalEdgeStyle;rounded=0;orthogonalLoop=1;jettySize=auto;html=1;entryX=0;entryY=0.5;entryDx=0;entryDy=0;entryPerimeter=0;" parent="WIyWlLk6GJQsqaUBKTNV-1" source="kDww0dAs7z7YPovADXAU-112" target="kDww0dAs7z7YPovADXAU-126" edge="1">
          <mxGeometry relative="1" as="geometry">
            <mxPoint x="2699.2999999999997" y="2648.98" as="sourcePoint" />
            <mxPoint x="2699.2999999999997" y="2428.98" as="targetPoint" />
            <Array as="points">
              <mxPoint x="2650.2999999999997" y="2648.98" />
            </Array>
          </mxGeometry>
        </mxCell>
        <mxCell id="kDww0dAs7z7YPovADXAU-126" value="i = i + 1" style="rounded=1;whiteSpace=wrap;html=1;absoluteArcSize=1;arcSize=14;strokeWidth=2;" parent="WIyWlLk6GJQsqaUBKTNV-1" vertex="1">
          <mxGeometry x="2589.11" y="2518.98" width="121.22" height="52.5" as="geometry" />
        </mxCell>
        <mxCell id="kDww0dAs7z7YPovADXAU-160" value="" style="edgeStyle=orthogonalEdgeStyle;rounded=0;orthogonalLoop=1;jettySize=auto;html=1;" parent="WIyWlLk6GJQsqaUBKTNV-1" source="kDww0dAs7z7YPovADXAU-129" target="kDww0dAs7z7YPovADXAU-159" edge="1">
          <mxGeometry relative="1" as="geometry" />
        </mxCell>
        <mxCell id="kDww0dAs7z7YPovADXAU-129" value="height, width = size" style="rounded=1;whiteSpace=wrap;html=1;absoluteArcSize=1;arcSize=14;strokeWidth=2;" parent="WIyWlLk6GJQsqaUBKTNV-1" vertex="1">
          <mxGeometry x="2717.2799999999997" y="2197" width="147.82" height="60" as="geometry" />
        </mxCell>
        <mxCell id="kDww0dAs7z7YPovADXAU-132" value="End" style="strokeWidth=2;html=1;shape=mxgraph.flowchart.terminator;whiteSpace=wrap;" parent="WIyWlLk6GJQsqaUBKTNV-1" vertex="1">
          <mxGeometry x="2940" y="2398.98" width="100" height="60" as="geometry" />
        </mxCell>
        <mxCell id="kDww0dAs7z7YPovADXAU-133" value="remove_isolated_paths" style="shape=process;whiteSpace=wrap;html=1;backgroundOutline=1;" parent="WIyWlLk6GJQsqaUBKTNV-1" vertex="1">
          <mxGeometry x="3280" y="1720" width="180" height="80" as="geometry" />
        </mxCell>
        <mxCell id="kDww0dAs7z7YPovADXAU-134" value="" style="edgeStyle=orthogonalEdgeStyle;rounded=0;orthogonalLoop=1;jettySize=auto;html=1;" parent="WIyWlLk6GJQsqaUBKTNV-1" source="kDww0dAs7z7YPovADXAU-135" target="kDww0dAs7z7YPovADXAU-137" edge="1">
          <mxGeometry relative="1" as="geometry" />
        </mxCell>
        <mxCell id="kDww0dAs7z7YPovADXAU-135" value="remove_isolated_paths(grid)" style="shape=process;whiteSpace=wrap;html=1;backgroundOutline=1;" parent="WIyWlLk6GJQsqaUBKTNV-1" vertex="1">
          <mxGeometry x="3670.28" y="1820" width="199.81" height="90" as="geometry" />
        </mxCell>
        <mxCell id="kDww0dAs7z7YPovADXAU-136" value="" style="edgeStyle=orthogonalEdgeStyle;rounded=0;orthogonalLoop=1;jettySize=auto;html=1;" parent="WIyWlLk6GJQsqaUBKTNV-1" source="kDww0dAs7z7YPovADXAU-137" target="kDww0dAs7z7YPovADXAU-157" edge="1">
          <mxGeometry relative="1" as="geometry">
            <mxPoint x="3770.2000000000003" y="2080" as="targetPoint" />
          </mxGeometry>
        </mxCell>
        <mxCell id="kDww0dAs7z7YPovADXAU-137" value="rows = number of members in grid" style="rounded=1;whiteSpace=wrap;html=1;absoluteArcSize=1;arcSize=14;strokeWidth=2;" parent="WIyWlLk6GJQsqaUBKTNV-1" vertex="1">
          <mxGeometry x="3697.78" y="1940" width="144.81" height="60" as="geometry" />
        </mxCell>
        <mxCell id="kDww0dAs7z7YPovADXAU-138" value="" style="edgeStyle=orthogonalEdgeStyle;rounded=0;orthogonalLoop=1;jettySize=auto;html=1;exitX=0.528;exitY=1.007;exitDx=0;exitDy=0;exitPerimeter=0;entryX=0.5;entryY=0;entryDx=0;entryDy=0;" parent="WIyWlLk6GJQsqaUBKTNV-1" source="kDww0dAs7z7YPovADXAU-157" target="kDww0dAs7z7YPovADXAU-155" edge="1">
          <mxGeometry relative="1" as="geometry">
            <mxPoint x="3766.6800000000003" y="2095" as="sourcePoint" />
            <mxPoint x="3800" y="2110" as="targetPoint" />
          </mxGeometry>
        </mxCell>
        <mxCell id="kDww0dAs7z7YPovADXAU-140" value="" style="edgeStyle=orthogonalEdgeStyle;rounded=0;orthogonalLoop=1;jettySize=auto;html=1;" parent="WIyWlLk6GJQsqaUBKTNV-1" source="kDww0dAs7z7YPovADXAU-142" target="kDww0dAs7z7YPovADXAU-147" edge="1">
          <mxGeometry relative="1" as="geometry" />
        </mxCell>
        <mxCell id="kDww0dAs7z7YPovADXAU-141" value="" style="edgeStyle=orthogonalEdgeStyle;rounded=0;orthogonalLoop=1;jettySize=auto;html=1;" parent="WIyWlLk6GJQsqaUBKTNV-1" source="kDww0dAs7z7YPovADXAU-142" edge="1">
          <mxGeometry relative="1" as="geometry">
            <mxPoint x="3921.1900000000005" y="2280.6" as="targetPoint" />
          </mxGeometry>
        </mxCell>
        <mxCell id="kDww0dAs7z7YPovADXAU-142" value="while i &amp;lt; rows - 1" style="strokeWidth=2;html=1;shape=mxgraph.flowchart.decision;whiteSpace=wrap;" parent="WIyWlLk6GJQsqaUBKTNV-1" vertex="1">
          <mxGeometry x="3680.5599999999995" y="2230.5" width="180" height="100" as="geometry" />
        </mxCell>
        <mxCell id="kDww0dAs7z7YPovADXAU-163" value="" style="edgeStyle=orthogonalEdgeStyle;rounded=0;orthogonalLoop=1;jettySize=auto;html=1;" parent="WIyWlLk6GJQsqaUBKTNV-1" source="kDww0dAs7z7YPovADXAU-145" target="kDww0dAs7z7YPovADXAU-162" edge="1">
          <mxGeometry relative="1" as="geometry" />
        </mxCell>
        <mxCell id="kDww0dAs7z7YPovADXAU-145" value="while j &amp;lt; cols - 1" style="strokeWidth=2;html=1;shape=mxgraph.flowchart.decision;whiteSpace=wrap;" parent="WIyWlLk6GJQsqaUBKTNV-1" vertex="1">
          <mxGeometry x="3680.5599999999995" y="2450.5" width="180" height="100" as="geometry" />
        </mxCell>
        <mxCell id="kDww0dAs7z7YPovADXAU-146" value="" style="edgeStyle=orthogonalEdgeStyle;rounded=0;orthogonalLoop=1;jettySize=auto;html=1;" parent="WIyWlLk6GJQsqaUBKTNV-1" source="kDww0dAs7z7YPovADXAU-147" target="kDww0dAs7z7YPovADXAU-145" edge="1">
          <mxGeometry relative="1" as="geometry" />
        </mxCell>
        <mxCell id="kDww0dAs7z7YPovADXAU-147" value="j = 1" style="rounded=1;whiteSpace=wrap;html=1;absoluteArcSize=1;arcSize=14;strokeWidth=2;" parent="WIyWlLk6GJQsqaUBKTNV-1" vertex="1">
          <mxGeometry x="3710.2599999999998" y="2360.5" width="120.63" height="45" as="geometry" />
        </mxCell>
        <mxCell id="kDww0dAs7z7YPovADXAU-152" style="edgeStyle=orthogonalEdgeStyle;rounded=0;orthogonalLoop=1;jettySize=auto;html=1;entryX=0;entryY=0.5;entryDx=0;entryDy=0;entryPerimeter=0;" parent="WIyWlLk6GJQsqaUBKTNV-1" source="kDww0dAs7z7YPovADXAU-154" target="kDww0dAs7z7YPovADXAU-142" edge="1">
          <mxGeometry relative="1" as="geometry">
            <Array as="points">
              <mxPoint x="3631.1899999999996" y="2280.5" />
            </Array>
          </mxGeometry>
        </mxCell>
        <mxCell id="kDww0dAs7z7YPovADXAU-153" value="" style="edgeStyle=orthogonalEdgeStyle;rounded=0;orthogonalLoop=1;jettySize=auto;html=1;entryX=0;entryY=0.5;entryDx=0;entryDy=0;entryPerimeter=0;" parent="WIyWlLk6GJQsqaUBKTNV-1" source="kDww0dAs7z7YPovADXAU-145" target="kDww0dAs7z7YPovADXAU-154" edge="1">
          <mxGeometry relative="1" as="geometry">
            <mxPoint x="3680.1899999999996" y="2500.5" as="sourcePoint" />
            <mxPoint x="3680.1899999999996" y="2280.5" as="targetPoint" />
            <Array as="points">
              <mxPoint x="3631.1899999999996" y="2500.5" />
            </Array>
          </mxGeometry>
        </mxCell>
        <mxCell id="kDww0dAs7z7YPovADXAU-154" value="i = i + 1" style="rounded=1;whiteSpace=wrap;html=1;absoluteArcSize=1;arcSize=14;strokeWidth=2;" parent="WIyWlLk6GJQsqaUBKTNV-1" vertex="1">
          <mxGeometry x="3570" y="2370.5" width="121.22" height="52.5" as="geometry" />
        </mxCell>
        <mxCell id="kDww0dAs7z7YPovADXAU-161" value="" style="edgeStyle=orthogonalEdgeStyle;rounded=0;orthogonalLoop=1;jettySize=auto;html=1;" parent="WIyWlLk6GJQsqaUBKTNV-1" source="kDww0dAs7z7YPovADXAU-155" target="kDww0dAs7z7YPovADXAU-142" edge="1">
          <mxGeometry relative="1" as="geometry" />
        </mxCell>
        <mxCell id="kDww0dAs7z7YPovADXAU-155" value="i = 1" style="rounded=1;whiteSpace=wrap;html=1;absoluteArcSize=1;arcSize=14;strokeWidth=2;" parent="WIyWlLk6GJQsqaUBKTNV-1" vertex="1">
          <mxGeometry x="3696.2799999999997" y="2130" width="147.82" height="60" as="geometry" />
        </mxCell>
        <mxCell id="kDww0dAs7z7YPovADXAU-156" value="End" style="strokeWidth=2;html=1;shape=mxgraph.flowchart.terminator;whiteSpace=wrap;" parent="WIyWlLk6GJQsqaUBKTNV-1" vertex="1">
          <mxGeometry x="3920.89" y="2250.5" width="100" height="60" as="geometry" />
        </mxCell>
        <mxCell id="kDww0dAs7z7YPovADXAU-157" value="&amp;nbsp;cols = number of members in grid[0]" style="rounded=1;whiteSpace=wrap;html=1;absoluteArcSize=1;arcSize=14;strokeWidth=2;" parent="WIyWlLk6GJQsqaUBKTNV-1" vertex="1">
          <mxGeometry x="3697.78" y="2035" width="144.81" height="60" as="geometry" />
        </mxCell>
        <mxCell id="kDww0dAs7z7YPovADXAU-159" value="i = 0" style="rounded=1;whiteSpace=wrap;html=1;absoluteArcSize=1;arcSize=14;strokeWidth=2;" parent="WIyWlLk6GJQsqaUBKTNV-1" vertex="1">
          <mxGeometry x="2717.2799999999997" y="2287.5" width="147.82" height="60" as="geometry" />
        </mxCell>
        <mxCell id="kDww0dAs7z7YPovADXAU-165" value="" style="edgeStyle=orthogonalEdgeStyle;rounded=0;orthogonalLoop=1;jettySize=auto;html=1;" parent="WIyWlLk6GJQsqaUBKTNV-1" source="kDww0dAs7z7YPovADXAU-162" target="kDww0dAs7z7YPovADXAU-164" edge="1">
          <mxGeometry relative="1" as="geometry" />
        </mxCell>
        <mxCell id="kDww0dAs7z7YPovADXAU-173" value="" style="edgeStyle=orthogonalEdgeStyle;rounded=0;orthogonalLoop=1;jettySize=auto;html=1;" parent="WIyWlLk6GJQsqaUBKTNV-1" source="kDww0dAs7z7YPovADXAU-162" target="kDww0dAs7z7YPovADXAU-172" edge="1">
          <mxGeometry relative="1" as="geometry" />
        </mxCell>
        <mxCell id="kDww0dAs7z7YPovADXAU-162" value="grid[i][j] = 0" style="strokeWidth=2;html=1;shape=mxgraph.flowchart.decision;whiteSpace=wrap;" parent="WIyWlLk6GJQsqaUBKTNV-1" vertex="1">
          <mxGeometry x="3680.5799999999995" y="2587.5" width="180" height="100" as="geometry" />
        </mxCell>
        <mxCell id="kDww0dAs7z7YPovADXAU-167" value="" style="edgeStyle=orthogonalEdgeStyle;rounded=0;orthogonalLoop=1;jettySize=auto;html=1;" parent="WIyWlLk6GJQsqaUBKTNV-1" source="kDww0dAs7z7YPovADXAU-164" target="kDww0dAs7z7YPovADXAU-166" edge="1">
          <mxGeometry relative="1" as="geometry" />
        </mxCell>
        <mxCell id="kDww0dAs7z7YPovADXAU-171" style="edgeStyle=orthogonalEdgeStyle;rounded=0;orthogonalLoop=1;jettySize=auto;html=1;entryX=0;entryY=0.5;entryDx=0;entryDy=0;" parent="WIyWlLk6GJQsqaUBKTNV-1" source="kDww0dAs7z7YPovADXAU-164" target="kDww0dAs7z7YPovADXAU-168" edge="1">
          <mxGeometry relative="1" as="geometry">
            <Array as="points">
              <mxPoint x="3350" y="2638" />
              <mxPoint x="3350" y="2883" />
            </Array>
          </mxGeometry>
        </mxCell>
        <mxCell id="kDww0dAs7z7YPovADXAU-164" value="all(grid[i + dx][j + dy] == 1&amp;nbsp;&lt;div&gt;for dx in [-1, 0, 1] ]&lt;/div&gt;&lt;div&gt;for dy in [-1, 0, 1]&amp;nbsp;&lt;/div&gt;&lt;div&gt;if (dx != 0 or dy != 0))&lt;/div&gt;" style="strokeWidth=2;html=1;shape=mxgraph.flowchart.decision;whiteSpace=wrap;" parent="WIyWlLk6GJQsqaUBKTNV-1" vertex="1">
          <mxGeometry x="3390" y="2561.25" width="230" height="152.5" as="geometry" />
        </mxCell>
        <mxCell id="kDww0dAs7z7YPovADXAU-169" value="" style="edgeStyle=orthogonalEdgeStyle;rounded=0;orthogonalLoop=1;jettySize=auto;html=1;" parent="WIyWlLk6GJQsqaUBKTNV-1" source="kDww0dAs7z7YPovADXAU-166" target="kDww0dAs7z7YPovADXAU-168" edge="1">
          <mxGeometry relative="1" as="geometry" />
        </mxCell>
        <mxCell id="kDww0dAs7z7YPovADXAU-166" value="grid[i][j] = 1" style="rounded=1;whiteSpace=wrap;html=1;absoluteArcSize=1;arcSize=14;strokeWidth=2;" parent="WIyWlLk6GJQsqaUBKTNV-1" vertex="1">
          <mxGeometry x="3438.48" y="2750" width="131.52" height="63.25" as="geometry" />
        </mxCell>
        <mxCell id="kDww0dAs7z7YPovADXAU-174" style="edgeStyle=orthogonalEdgeStyle;rounded=0;orthogonalLoop=1;jettySize=auto;html=1;entryX=0;entryY=0.5;entryDx=0;entryDy=0;" parent="WIyWlLk6GJQsqaUBKTNV-1" source="kDww0dAs7z7YPovADXAU-168" target="kDww0dAs7z7YPovADXAU-172" edge="1">
          <mxGeometry relative="1" as="geometry">
            <Array as="points">
              <mxPoint x="3520" y="2883" />
              <mxPoint x="3520" y="2880" />
              <mxPoint x="3759" y="2880" />
            </Array>
          </mxGeometry>
        </mxCell>
        <mxCell id="kDww0dAs7z7YPovADXAU-168" value="" style="ellipse;whiteSpace=wrap;html=1;rounded=1;arcSize=14;strokeWidth=2;" parent="WIyWlLk6GJQsqaUBKTNV-1" vertex="1">
          <mxGeometry x="3491.68" y="2870" width="25.13" height="25.13" as="geometry" />
        </mxCell>
        <mxCell id="kDww0dAs7z7YPovADXAU-179" style="edgeStyle=orthogonalEdgeStyle;rounded=0;orthogonalLoop=1;jettySize=auto;html=1;entryX=0.5;entryY=1;entryDx=0;entryDy=0;" parent="WIyWlLk6GJQsqaUBKTNV-1" source="kDww0dAs7z7YPovADXAU-172" target="kDww0dAs7z7YPovADXAU-177" edge="1">
          <mxGeometry relative="1" as="geometry" />
        </mxCell>
        <mxCell id="kDww0dAs7z7YPovADXAU-172" value="" style="ellipse;whiteSpace=wrap;html=1;strokeWidth=2;" parent="WIyWlLk6GJQsqaUBKTNV-1" vertex="1">
          <mxGeometry x="3759.33" y="2868.75" width="22.5" height="22.5" as="geometry" />
        </mxCell>
        <mxCell id="kDww0dAs7z7YPovADXAU-175" style="edgeStyle=orthogonalEdgeStyle;rounded=0;orthogonalLoop=1;jettySize=auto;html=1;entryX=1;entryY=0.5;entryDx=0;entryDy=0;entryPerimeter=0;" parent="WIyWlLk6GJQsqaUBKTNV-1" source="kDww0dAs7z7YPovADXAU-177" target="kDww0dAs7z7YPovADXAU-145" edge="1">
          <mxGeometry relative="1" as="geometry">
            <Array as="points">
              <mxPoint x="3931" y="2500" />
            </Array>
          </mxGeometry>
        </mxCell>
        <mxCell id="kDww0dAs7z7YPovADXAU-177" value="j = j + 1" style="rounded=1;whiteSpace=wrap;html=1;absoluteArcSize=1;arcSize=14;strokeWidth=2;" parent="WIyWlLk6GJQsqaUBKTNV-1" vertex="1">
          <mxGeometry x="3870.000000000001" y="2667.5" width="121.22" height="52.5" as="geometry" />
        </mxCell>
      </root>
    </mxGraphModel>
  </diagram>
  <diagram id="h5tb2rrUNHOTLLljQGZK" name="Page-2">
    <mxGraphModel dx="807" dy="935" grid="1" gridSize="10" guides="1" tooltips="1" connect="1" arrows="1" fold="1" page="1" pageScale="1" pageWidth="827" pageHeight="1169" math="0" shadow="0">
      <root>
        <mxCell id="0" />
        <mxCell id="1" parent="0" />
        <mxCell id="PQrYYPoKw90e66ZuMzL5-1" value="Applying A* part" style="rounded=0;whiteSpace=wrap;html=1;" vertex="1" parent="1">
          <mxGeometry x="40" y="40" width="120" height="60" as="geometry" />
        </mxCell>
        <mxCell id="I020jMrQxdlZzQn_tBwD-2" value="" style="edgeStyle=none;curved=1;rounded=0;orthogonalLoop=1;jettySize=auto;html=1;fontSize=12;startSize=8;endSize=8;" edge="1" parent="1" source="PQrYYPoKw90e66ZuMzL5-2" target="I020jMrQxdlZzQn_tBwD-1">
          <mxGeometry relative="1" as="geometry" />
        </mxCell>
        <mxCell id="PQrYYPoKw90e66ZuMzL5-2" value="Start" style="strokeWidth=2;html=1;shape=mxgraph.flowchart.terminator;whiteSpace=wrap;" vertex="1" parent="1">
          <mxGeometry x="190" y="120" width="100" height="60" as="geometry" />
        </mxCell>
        <mxCell id="I020jMrQxdlZzQn_tBwD-4" value="" style="edgeStyle=none;curved=1;rounded=0;orthogonalLoop=1;jettySize=auto;html=1;fontSize=12;startSize=8;endSize=8;" edge="1" parent="1" source="I020jMrQxdlZzQn_tBwD-1" target="I020jMrQxdlZzQn_tBwD-3">
          <mxGeometry relative="1" as="geometry" />
        </mxCell>
        <mxCell id="I020jMrQxdlZzQn_tBwD-1" value="c = 0" style="rounded=1;whiteSpace=wrap;html=1;absoluteArcSize=1;arcSize=14;strokeWidth=2;" vertex="1" parent="1">
          <mxGeometry x="190" y="220" width="100" height="50" as="geometry" />
        </mxCell>
        <mxCell id="I020jMrQxdlZzQn_tBwD-6" value="" style="edgeStyle=none;curved=1;rounded=0;orthogonalLoop=1;jettySize=auto;html=1;fontSize=12;startSize=8;endSize=8;" edge="1" parent="1" source="I020jMrQxdlZzQn_tBwD-3" target="I020jMrQxdlZzQn_tBwD-5">
          <mxGeometry relative="1" as="geometry" />
        </mxCell>
        <mxCell id="I020jMrQxdlZzQn_tBwD-3" value="while c &amp;lt; number of robot" style="strokeWidth=2;html=1;shape=mxgraph.flowchart.decision;whiteSpace=wrap;" vertex="1" parent="1">
          <mxGeometry x="165" y="300" width="150" height="100" as="geometry" />
        </mxCell>
        <mxCell id="I020jMrQxdlZzQn_tBwD-8" value="" style="edgeStyle=none;curved=1;rounded=0;orthogonalLoop=1;jettySize=auto;html=1;fontSize=12;startSize=8;endSize=8;" edge="1" parent="1" source="I020jMrQxdlZzQn_tBwD-5" target="I020jMrQxdlZzQn_tBwD-7">
          <mxGeometry relative="1" as="geometry" />
        </mxCell>
        <mxCell id="I020jMrQxdlZzQn_tBwD-5" value="check robot number c is not&amp;nbsp;&lt;div&gt;carrying object &lt;b&gt;&lt;i&gt;and&lt;/i&gt;&lt;/b&gt;&amp;nbsp;&lt;/div&gt;&lt;div&gt;button S has been pressed&amp;nbsp;&lt;/div&gt;&lt;div&gt;already&lt;/div&gt;" style="strokeWidth=2;html=1;shape=mxgraph.flowchart.decision;whiteSpace=wrap;" vertex="1" parent="1">
          <mxGeometry x="122.5" y="440" width="235" height="130" as="geometry" />
        </mxCell>
        <mxCell id="BwfqfhqwGRt_iGtyXeq7-2" value="" style="edgeStyle=none;curved=1;rounded=0;orthogonalLoop=1;jettySize=auto;html=1;fontSize=12;startSize=8;endSize=8;" edge="1" parent="1" source="I020jMrQxdlZzQn_tBwD-7" target="BwfqfhqwGRt_iGtyXeq7-1">
          <mxGeometry relative="1" as="geometry" />
        </mxCell>
        <mxCell id="I020jMrQxdlZzQn_tBwD-7" value="modified_original_path = every object that was targeted by other robot (except itself)" style="rounded=1;whiteSpace=wrap;html=1;absoluteArcSize=1;arcSize=14;strokeWidth=2;" vertex="1" parent="1">
          <mxGeometry x="430" y="470" width="170" height="70" as="geometry" />
        </mxCell>
        <mxCell id="BwfqfhqwGRt_iGtyXeq7-4" value="" style="edgeStyle=none;curved=1;rounded=0;orthogonalLoop=1;jettySize=auto;html=1;fontSize=12;startSize=8;endSize=8;" edge="1" parent="1" source="BwfqfhqwGRt_iGtyXeq7-1" target="BwfqfhqwGRt_iGtyXeq7-3">
          <mxGeometry relative="1" as="geometry" />
        </mxCell>
        <mxCell id="BwfqfhqwGRt_iGtyXeq7-1" value="Object, which this robot&amp;nbsp;&lt;div&gt;is targeting,&amp;nbsp;&lt;span style=&quot;background-color: initial;&quot;&gt;is the member of modified_original_path&lt;/span&gt;&lt;/div&gt;" style="strokeWidth=2;html=1;shape=mxgraph.flowchart.decision;whiteSpace=wrap;" vertex="1" parent="1">
          <mxGeometry x="408.75" y="585" width="212.5" height="105" as="geometry" />
        </mxCell>
        <mxCell id="BwfqfhqwGRt_iGtyXeq7-3" value="Object, which this robot&amp;nbsp;&lt;div&gt;is targeting,&amp;nbsp;&lt;span style=&quot;background-color: initial;&quot;&gt;is the member of modified_original_path&lt;/span&gt;&lt;/div&gt;" style="strokeWidth=2;html=1;shape=mxgraph.flowchart.decision;whiteSpace=wrap;" vertex="1" parent="1">
          <mxGeometry x="660" y="585" width="212.5" height="105" as="geometry" />
        </mxCell>
      </root>
    </mxGraphModel>
  </diagram>
</mxfile>
